<?xml version="1.0" standalone="no"?>
<!DOCTYPE svg PUBLIC "-//W3C//DTD SVG 20010904//EN"
 "http://www.w3.org/TR/2001/REC-SVG-20010904/DTD/svg10.dtd">
<svg version="1.0" xmlns="http://www.w3.org/2000/svg"
 width="800.000000pt" height="800.000000pt" viewBox="0 0 800.000000 800.000000"
 preserveAspectRatio="xMidYMid meet">
<metadata>
Created by potrace 1.11, written by Peter Selinger 2001-2013
</metadata>
<g transform="translate(0.000000,800.000000) scale(0.100000,-0.100000)"
fill="#000000" stroke="none">
<path d="M0 6308 l0 -793 54 0 c85 0 142 -54 171 -164 9 -31 28 -96 44 -146
16 -49 35 -117 41 -150 7 -33 16 -71 20 -85 13 -40 116 -390 130 -445 5 -16
20 -74 34 -128 14 -54 28 -102 31 -107 3 -5 9 -28 14 -52 5 -24 28 -104 50
-178 22 -74 67 -229 100 -345 77 -264 93 -318 102 -328 7 -9 76 45 144 112 22
21 48 41 57 44 10 4 24 22 32 41 8 19 23 39 34 45 31 16 59 71 65 126 4 29 21
78 42 117 19 37 44 91 54 120 27 77 72 173 121 258 46 81 51 111 35 221 -9 65
4 116 43 168 l26 35 2 250 c1 138 7 285 12 326 6 41 11 112 12 156 0 46 7 100
15 124 8 23 15 73 15 110 0 52 6 78 25 116 20 37 24 59 20 89 -8 68 51 288
109 403 60 118 82 132 507 346 211 106 425 207 474 225 147 52 175 73 248 184
l64 97 -1473 0 -1474 0 0 -792z"/>
<path d="M3040 7095 c0 -2 35 -28 78 -57 42 -28 86 -60 97 -71 11 -10 34 -26
50 -34 53 -27 58 -34 35 -50 -11 -8 -20 -21 -20 -29 0 -8 -5 -14 -10 -14 -6 0
-15 -11 -20 -24 -5 -13 -18 -27 -30 -31 -17 -5 -19 -10 -9 -21 16 -20 3 -47
-20 -39 -14 4 -22 -3 -35 -29 -9 -19 -16 -37 -16 -41 0 -13 -51 -142 -95 -240
-15 -33 -29 -73 -31 -90 -7 -63 -17 -97 -31 -102 -7 -3 -20 -21 -28 -40 -18
-43 -18 -43 0 -43 8 0 15 -7 15 -15 0 -14 -11 -19 -37 -16 -7 1 -15 -15 -19
-36 -4 -21 -11 -46 -16 -55 -5 -10 -10 -38 -12 -63 -2 -25 -9 -51 -15 -58 -24
-30 -40 -84 -29 -95 9 -9 9 -15 -1 -24 -11 -11 -14 -10 -19 1 -5 16 -32 -41
-32 -70 0 -10 -6 -22 -14 -26 -16 -9 -89 -173 -81 -181 3 -3 -2 -16 -11 -29
-27 -43 -46 -106 -33 -114 6 -4 8 -12 5 -18 -4 -6 -11 -9 -15 -6 -21 13 -148
-570 -143 -657 0 -16 -3 -28 -9 -28 -6 0 -9 6 -6 13 2 6 -2 26 -10 44 -9 22
-13 75 -12 160 0 164 9 233 47 369 22 77 31 135 33 195 1 57 7 97 20 126 11
23 19 47 19 53 0 7 23 66 50 131 90 214 130 328 140 402 6 40 19 90 30 113 11
22 24 61 29 87 11 58 12 60 43 48 36 -13 62 14 78 79 16 65 27 279 20 390 -5
82 -10 85 -25 13 -4 -18 -10 -33 -15 -33 -4 0 -11 -25 -15 -55 -6 -55 -35
-146 -61 -196 -7 -15 -29 -70 -48 -121 -19 -51 -48 -129 -66 -173 -17 -44 -43
-116 -59 -160 -28 -81 -46 -123 -106 -250 -18 -38 -45 -97 -60 -130 -15 -33
-33 -67 -40 -75 -7 -8 -16 -25 -20 -38 -4 -13 -22 -51 -41 -85 l-35 -61 3
-420 c2 -258 7 -427 13 -437 6 -9 33 -42 60 -74 28 -31 55 -65 60 -75 6 -10
80 -97 165 -195 85 -98 166 -193 180 -211 14 -18 28 -34 32 -34 14 0 49 91 43
111 -5 13 -2 19 10 19 8 0 18 8 22 18 3 9 15 37 25 61 31 68 108 268 108 278
0 5 12 34 26 64 31 64 74 160 74 165 0 2 -5 3 -12 2 -6 -2 -14 5 -16 15 -2 12
3 17 21 17 21 0 29 11 56 75 17 41 31 86 31 100 0 14 5 25 10 25 6 0 20 21 30
46 22 51 24 57 12 50 -4 -2 -14 -1 -22 4 -12 8 -12 12 -2 22 10 10 15 10 22
-2 5 -8 11 -12 13 -10 14 17 57 167 57 201 0 23 6 67 14 98 8 31 16 89 19 129
5 60 3 72 -9 72 -10 0 -14 7 -12 18 2 9 10 16 16 15 15 -4 16 70 2 98 -9 15
-7 21 5 25 18 7 21 74 3 92 -8 8 -8 15 1 26 9 11 10 41 2 128 -13 138 -29 253
-41 292 -8 25 -6 33 16 52 13 13 24 27 24 31 -1 5 6 9 15 9 11 2 11 1 1 -3
-15 -4 -10 -43 5 -43 5 0 36 13 68 29 61 31 88 61 97 111 7 34 28 55 48 47 7
-3 29 -2 49 2 43 10 89 -15 109 -60 10 -21 20 -29 39 -29 15 0 44 -7 65 -16
l39 -16 -41 44 c-23 23 -52 56 -65 72 -36 44 -123 139 -231 253 -54 56 -98
107 -98 113 0 5 21 29 47 52 27 24 73 67 103 95 l55 53 -352 0 c-194 0 -353
-2 -353 -5z m251 -298 c-13 -13 -26 -3 -16 12 3 6 11 8 17 5 6 -4 6 -10 -1
-17z m259 13 c0 -5 -4 -10 -10 -10 -5 0 -10 5 -10 10 0 6 5 10 10 10 6 0 10
-4 10 -10z m-93 -26 c-3 -3 -12 -4 -19 -1 -8 3 -5 6 6 6 11 1 17 -2 13 -5z
m151 -45 c-2 -6 -8 -10 -13 -10 -5 0 -11 4 -13 10 -2 6 4 11 13 11 9 0 15 -5
13 -11z m-88 -25 c0 -9 -5 -14 -12 -12 -18 6 -21 28 -4 28 9 0 16 -7 16 -16z
m-245 -4 c-3 -5 -10 -10 -16 -10 -5 0 -9 5 -9 10 0 6 7 10 16 10 8 0 12 -4 9
-10z m155 -20 c0 -5 -7 -10 -15 -10 -8 0 -15 5 -15 10 0 6 7 10 15 10 8 0 15
-4 15 -10z m-234 -49 c-8 -13 -36 -15 -36 -3 0 4 5 13 12 20 14 14 34 0 24
-17z m148 10 c3 -5 0 -11 -8 -14 -15 -6 -26 1 -26 15 0 11 27 10 34 -1z m216
-21 c0 -5 -2 -10 -4 -10 -3 0 -8 5 -11 10 -3 6 -1 10 4 10 6 0 11 -4 11 -10z
m-300 -25 c0 -8 -9 -15 -20 -15 -20 0 -26 11 -13 23 12 13 33 7 33 -8z m220
-1 c0 -8 -4 -12 -10 -9 -5 3 -10 10 -10 16 0 5 5 9 10 9 6 0 10 -7 10 -16z
m-319 -38 c5 3 12 -2 16 -11 3 -10 0 -21 -8 -26 -21 -13 -26 -11 -32 13 -6 23
4 51 11 30 2 -7 8 -10 13 -6z m249 4 c0 -5 -4 -10 -9 -10 -6 0 -13 5 -16 10
-3 6 1 10 9 10 9 0 16 -4 16 -10z m-85 -29 c7 -12 -12 -24 -25 -16 -11 7 -4
25 10 25 5 0 11 -4 15 -9z m205 -21 c0 -5 -4 -10 -10 -10 -5 0 -10 5 -10 10 0
6 5 10 10 10 6 0 10 -4 10 -10z m-290 -25 c0 -8 -9 -15 -20 -15 -20 0 -26 11
-13 23 12 13 33 7 33 -8z m220 -5 c0 -5 -4 -10 -10 -10 -5 0 -10 5 -10 10 0 6
5 10 10 10 6 0 10 -4 10 -10z m-349 -33 c-8 -8 -11 -7 -11 4 0 20 13 34 18 19
3 -7 -1 -17 -7 -23z m49 -12 c0 -8 -9 -15 -20 -15 -20 0 -26 11 -13 23 12 13
33 7 33 -8z m220 5 c0 -5 -2 -10 -4 -10 -3 0 -8 5 -11 10 -3 6 -1 10 4 10 6 0
11 -4 11 -10z m-70 -30 c0 -5 -4 -10 -9 -10 -6 0 -13 5 -16 10 -3 6 1 10 9 10
9 0 16 -4 16 -10z m-180 -20 c0 -5 -5 -10 -11 -10 -5 0 -7 5 -4 10 3 6 8 10
11 10 2 0 4 -4 4 -10z m44 -35 c7 -20 -23 -33 -34 -14 -5 7 -6 17 -4 21 9 13
32 9 38 -7z m-114 -14 c0 -10 -30 -24 -37 -17 -3 3 -2 9 2 15 8 13 35 15 35 2z
m20 -41 c0 -11 -6 -20 -14 -20 -18 0 -29 16 -21 30 11 18 35 11 35 -10z m221
-3 c-1 -12 -15 -9 -19 4 -3 6 1 10 8 8 6 -3 11 -8 11 -12z m-81 -41 c-13 -13
-35 7 -25 24 5 8 11 8 21 -1 10 -8 12 -15 4 -23z m-90 -20 c0 -8 -4 -17 -8
-20 -13 -8 -35 11 -28 23 10 16 36 14 36 -3z m190 -26 c0 -5 -5 -10 -11 -10
-5 0 -7 5 -4 10 3 6 8 10 11 10 2 0 4 -4 4 -10z m-275 -30 c0 -8 -8 -16 -17
-18 -13 -2 -18 3 -18 18 0 15 5 20 18 18 9 -2 17 -10 17 -18z m215 2 c0 -13
-12 -22 -22 -16 -10 6 -1 24 13 24 5 0 9 -4 9 -8z m-80 -27 c0 -8 -7 -15 -15
-15 -8 0 -15 7 -15 15 0 8 7 15 15 15 8 0 15 -7 15 -15z m200 5 c0 -5 -4 -10
-10 -10 -5 0 -10 5 -10 10 0 6 5 10 10 10 6 0 10 -4 10 -10z m-280 -50 c0 -11
-6 -20 -14 -20 -18 0 -29 16 -21 30 11 18 35 11 35 -10z m230 10 c0 -5 -4 -10
-10 -10 -5 0 -10 5 -10 10 0 6 5 10 10 10 6 0 10 -4 10 -10z m-59 -33 c-1 -12
-15 -9 -19 4 -3 6 1 10 8 8 6 -3 11 -8 11 -12z m-254 -23 c8 -21 -13 -42 -28
-27 -13 13 -5 43 11 43 6 0 13 -7 17 -16z m203 -4 c0 -5 -4 -10 -9 -10 -6 0
-13 5 -16 10 -3 6 1 10 9 10 9 0 16 -4 16 -10z m180 -5 c0 -8 -4 -15 -9 -15
-13 0 -22 16 -14 24 11 11 23 6 23 -9z m-244 -16 c10 -17 -13 -36 -27 -22 -12
12 -4 33 11 33 5 0 12 -5 16 -11z m184 -24 c0 -8 -4 -15 -10 -15 -5 0 -10 7
-10 15 0 8 5 15 10 15 6 0 10 -7 10 -15z m-400 -25 c0 -11 -7 -20 -15 -20 -27
0 -18 30 13 39 1 1 2 -8 2 -19z m138 -14 c3 -13 -1 -17 -14 -14 -11 2 -20 11
-22 22 -3 13 1 17 14 14 11 -2 20 -11 22 -22z m199 -2 c-9 -9 -28 6 -21 18 4
6 10 6 17 -1 6 -6 8 -13 4 -17z m-67 -38 c-13 -13 -35 7 -25 24 5 8 11 8 21
-1 10 -8 12 -15 4 -23z m198 6 c2 -7 -3 -12 -12 -12 -9 0 -16 7 -16 16 0 17
22 14 28 -4z m-413 -22 c0 -8 -8 -16 -17 -18 -13 -2 -18 3 -18 18 0 15 5 20
18 18 9 -2 17 -10 17 -18z m143 -23 c2 -10 -3 -17 -12 -17 -18 0 -29 16 -21
31 9 14 29 6 33 -14z m206 7 c4 -11 1 -14 -11 -12 -9 2 -18 9 -21 16 -6 18 25
15 32 -4z m-74 -44 c0 -13 -5 -18 -15 -14 -8 4 -15 12 -15 20 0 8 7 14 15 14
8 0 15 -9 15 -20z m-350 -4 c0 -8 -5 -18 -11 -22 -14 -8 -33 11 -25 25 10 16
36 13 36 -3z m133 -22 c-3 -8 -9 -14 -13 -14 -14 0 -22 20 -16 37 5 12 9 13
21 3 7 -6 11 -18 8 -26z m141 -25 c-8 -14 -34 -11 -34 4 0 8 3 17 7 20 9 9 34
-13 27 -24z m204 7 c3 -12 -1 -17 -10 -14 -7 3 -15 13 -16 22 -3 12 1 17 10
14 7 -3 15 -13 16 -22z m-431 -22 c8 -21 -13 -42 -28 -27 -13 13 -5 43 11 43
6 0 13 -7 17 -16z m361 -17 c2 -10 -3 -17 -12 -17 -18 0 -29 16 -21 31 9 14
29 6 33 -14z m-218 -11 c0 -8 -5 -18 -11 -22 -14 -8 -33 11 -25 25 10 16 36
13 36 -3z m138 -39 c4 -19 -6 -21 -27 -8 -16 10 -5 34 12 28 7 -2 13 -11 15
-20z m-358 -7 c0 -13 -7 -20 -20 -20 -19 0 -27 20 -13 33 13 14 33 6 33 -13z
m136 -5 c3 -8 3 -19 0 -24 -10 -16 -36 -1 -36 20 0 22 28 26 36 4z m358 -26
c-8 -14 -34 -11 -34 4 0 8 3 17 7 20 9 9 34 -13 27 -24z m-219 -9 c0 -22 -29
-18 -33 3 -3 14 1 18 15 15 10 -2 18 -10 18 -18z m-225 -29 c0 -24 -11 -32
-28 -22 -16 10 -5 41 14 41 8 0 14 -9 14 -19z m365 -2 c0 -7 -8 -15 -17 -17
-18 -3 -25 18 -11 32 10 10 28 1 28 -15z m-485 -3 c0 -17 -27 -29 -35 -16 -4
6 -3 15 0 20 9 15 35 12 35 -4z m259 -9 c8 -10 7 -17 -1 -25 -15 -15 -39 3
-31 24 7 18 17 18 32 1z m145 -48 c-8 -14 -34 -11 -34 4 0 8 3 17 7 20 9 9 34
-13 27 -24z m-364 -9 c0 -21 -24 -28 -35 -10 -8 14 3 30 21 30 8 0 14 -9 14
-20z m138 -13 c2 -12 -3 -17 -17 -17 -15 0 -21 6 -21 21 0 25 33 22 38 -4z
m365 9 c7 -16 -1 -26 -20 -26 -7 0 -13 9 -13 20 0 23 25 27 33 6z m-613 -10
c0 -17 -14 -29 -23 -20 -8 8 3 34 14 34 5 0 9 -6 9 -14z m387 -12 c8 -21 -13
-42 -28 -27 -13 13 -5 43 11 43 6 0 13 -7 17 -16z m140 -30 c9 -23 -11 -38
-26 -20 -13 16 -7 36 10 36 5 0 12 -7 16 -16z m-487 -19 c0 -16 -27 -28 -36
-14 -7 12 15 41 27 33 5 -3 9 -11 9 -19z m125 15 c4 -6 1 -17 -5 -26 -15 -18
-42 0 -33 22 6 16 29 19 38 4z m138 -24 c7 -16 -1 -26 -20 -26 -7 0 -13 9 -13
20 0 23 25 27 33 6z m365 -4 c3 -9 -2 -13 -14 -10 -9 1 -19 9 -22 16 -3 9 2
13 14 10 9 -1 19 -9 22 -16z m-220 -29 c-2 -10 -10 -18 -18 -18 -8 0 -16 8
-18 18 -2 12 3 17 18 17 15 0 20 -5 18 -17z m-368 -23 c0 -11 -6 -20 -13 -20
-19 0 -27 10 -20 26 8 21 33 17 33 -6z m505 0 c0 -22 -29 -18 -33 3 -3 14 1
18 15 15 10 -2 18 -10 18 -18z m-368 -6 c8 -20 -8 -36 -26 -25 -15 10 -8 41 9
41 6 0 13 -7 17 -16z m-247 -9 c0 -8 -7 -15 -15 -15 -16 0 -20 12 -8 23 11 12
23 8 23 -8z m387 -11 c9 -23 -11 -38 -26 -20 -13 16 -7 36 10 36 5 0 12 -7 16
-16z m146 -19 c7 -17 -8 -29 -28 -21 -17 6 -9 36 10 36 7 0 15 -7 18 -15z
m-493 -30 c0 -19 -20 -29 -32 -17 -8 8 -7 16 2 26 14 17 30 12 30 -9z m125
-15 c-9 -15 -25 -12 -32 6 -8 21 19 38 30 18 4 -8 5 -19 2 -24z m505 14 c0 -8
-6 -14 -13 -14 -19 0 -27 10 -20 25 6 17 33 8 33 -11z m-362 -17 c2 -12 -3
-17 -17 -17 -15 0 -21 6 -21 21 0 25 33 22 38 -4z m140 -14 c-2 -10 -10 -18
-18 -18 -8 0 -16 8 -18 18 -2 12 3 17 18 17 15 0 20 -5 18 -17z m139 -9 c8
-20 -8 -36 -26 -25 -15 10 -8 41 9 41 6 0 13 -7 17 -16z m-504 -18 c7 -19 -18
-42 -28 -26 -8 13 1 40 14 40 5 0 11 -6 14 -14z m140 -10 c8 -19 -20 -43 -34
-29 -12 12 -1 43 16 43 7 0 15 -6 18 -14z m-253 -11 c0 -8 -7 -15 -15 -15 -9
0 -12 6 -9 15 4 8 10 15 15 15 5 0 9 -7 9 -15z m398 -12 c5 -17 -26 -29 -40
-15 -6 6 -7 15 -3 22 9 14 37 9 43 -7z m138 -4 c9 -15 -11 -33 -30 -26 -9 4
-13 13 -10 22 7 17 30 20 40 4z m134 -34 c0 -8 -7 -15 -15 -15 -8 0 -15 7 -15
15 0 8 7 15 15 15 8 0 15 -7 15 -15z m-635 -15 c0 -7 -6 -15 -12 -17 -8 -3
-13 4 -13 17 0 13 5 20 13 18 6 -3 12 -11 12 -18z m133 -3 c2 -12 -3 -17 -17
-17 -12 0 -21 6 -21 13 0 31 32 34 38 4z m142 -7 c0 -13 -7 -20 -20 -20 -13 0
-20 7 -20 20 0 13 7 20 20 20 13 0 20 -7 20 -20z m-374 -17 c-10 -10 -19 5
-10 18 6 11 8 11 12 0 2 -7 1 -15 -2 -18z m514 7 c0 -13 -7 -20 -20 -20 -13 0
-20 7 -20 20 0 13 7 20 20 20 13 0 20 -7 20 -20z m138 -17 c-2 -10 -10 -18
-18 -18 -8 0 -16 8 -18 18 -2 12 3 17 18 17 15 0 20 -5 18 -17z m-500 -36 c2
-10 -3 -17 -12 -17 -18 0 -29 16 -21 31 9 14 29 6 33 -14z m140 -6 c-5 -24
-38 -27 -38 -3 0 10 3 21 6 25 11 11 35 -5 32 -22z m-258 5 c0 -8 -4 -18 -10
-21 -5 -3 -10 3 -10 14 0 12 5 21 10 21 6 0 10 -6 10 -14z m395 4 c4 -6 1 -17
-5 -26 -15 -18 -42 0 -33 22 6 16 29 19 38 4z m140 -20 c0 -8 -8 -16 -17 -18
-13 -2 -18 3 -18 18 0 15 5 20 18 18 9 -2 17 -10 17 -18z m-495 -54 c0 -8 -4
-17 -9 -21 -12 -7 -24 12 -16 25 9 15 25 12 25 -4z m135 -6 c0 -8 -8 -16 -17
-18 -13 -2 -18 3 -18 18 0 15 5 20 18 18 9 -2 17 -10 17 -18z m135 0 c0 -11
-6 -20 -14 -20 -18 0 -29 16 -21 30 11 18 35 11 35 -10z m138 -8 c2 -14 -2
-22 -12 -22 -19 0 -29 17 -22 36 8 22 30 12 34 -14z m-508 -2 c0 -5 -4 -10
-10 -10 -5 0 -10 5 -10 10 0 6 5 10 10 10 6 0 10 -4 10 -10z m650 -10 c0 -11
-6 -20 -13 -20 -19 0 -27 10 -20 26 8 21 33 17 33 -6z m-490 -56 c0 -8 -7 -14
-15 -14 -15 0 -21 21 -9 33 10 9 24 -2 24 -19z m128 3 c2 -10 -3 -17 -12 -17
-10 0 -16 9 -16 21 0 24 23 21 28 -4z m139 7 c8 -21 -13 -42 -28 -27 -13 13
-5 43 11 43 6 0 13 -7 17 -16z m-387 -9 c0 -8 -7 -15 -15 -15 -8 0 -15 7 -15
15 0 8 7 15 15 15 8 0 15 -7 15 -15z m528 -8 c2 -12 -3 -17 -17 -17 -15 0 -21
6 -21 21 0 25 33 22 38 -4z m-486 -79 c-15 -15 -26 -4 -18 18 5 13 9 15 18 6
9 -9 9 -15 0 -24z m138 18 c0 -20 -19 -31 -32 -18 -6 6 -7 15 -4 21 10 16 36
13 36 -3z m130 0 c0 -8 -4 -17 -8 -20 -13 -8 -35 11 -28 23 10 16 36 14 36 -3z
m135 -6 c0 -8 -8 -16 -17 -18 -13 -2 -18 3 -18 18 0 15 5 20 18 18 9 -2 17
-10 17 -18z m142 4 c7 -18 -17 -38 -31 -24 -11 11 -1 40 14 40 6 0 13 -7 17
-16z m-657 -9 c0 -8 -4 -15 -10 -15 -5 0 -7 7 -4 15 4 8 8 15 10 15 2 0 4 -7
4 -15z m304 -60 c3 -9 -1 -18 -10 -22 -19 -7 -28 2 -21 22 8 19 23 19 31 0z
m131 -5 c0 -8 -8 -16 -17 -18 -13 -2 -18 3 -18 18 0 15 5 20 18 18 9 -2 17
-10 17 -18z m140 0 c0 -8 -8 -16 -17 -18 -13 -2 -18 3 -18 18 0 15 5 20 18 18
9 -2 17 -10 17 -18z m-525 -4 c0 -8 -4 -18 -10 -21 -5 -3 -10 3 -10 14 0 12 5
21 10 21 6 0 10 -6 10 -14z m125 4 c3 -6 -1 -13 -10 -16 -19 -8 -30 0 -20 15
8 14 22 14 30 1z m319 -81 c-8 -14 -34 -11 -34 4 0 8 3 17 7 20 9 9 34 -13 27
-24z m-264 1 c0 -19 -11 -26 -23 -14 -8 8 3 34 14 34 5 0 9 -9 9 -20z m130 5
c0 -8 -7 -15 -15 -15 -8 0 -15 7 -15 15 0 8 7 15 15 15 8 0 15 -7 15 -15z
m-250 -10 c0 -8 -7 -15 -15 -15 -16 0 -20 12 -8 23 11 12 23 8 23 -8z m310
-65 c0 -19 -11 -26 -23 -14 -8 8 3 34 14 34 5 0 9 -9 9 -20z m136 9 c8 -14
-11 -33 -25 -25 -11 7 -4 36 9 36 5 0 12 -5 16 -11z m-386 -25 c0 -16 -16 -19
-25 -4 -8 13 4 32 16 25 5 -4 9 -13 9 -21z m122 11 c0 -5 -5 -11 -11 -13 -6
-2 -11 4 -11 13 0 9 5 15 11 13 6 -2 11 -8 11 -13z m-242 -10 c0 -8 -4 -15
-10 -15 -5 0 -10 7 -10 15 0 8 5 15 10 15 6 0 10 -7 10 -15z m310 -71 c0 -16
-16 -19 -25 -4 -8 13 4 32 16 25 5 -4 9 -13 9 -21z m130 12 c0 -8 -4 -17 -9
-21 -12 -7 -24 12 -16 25 9 15 25 12 25 -4z m-250 -11 c0 -8 -7 -15 -15 -15
-16 0 -20 12 -8 23 11 12 23 8 23 -8z m-316 -30 c-7 -18 -8 -18 -14 1 -9 23
-1 39 11 27 6 -6 6 -18 3 -28z m186 25 c0 -5 -4 -10 -10 -10 -5 0 -10 5 -10
10 0 6 5 10 10 10 6 0 10 -4 10 -10z m-183 -72 c-3 -8 -6 -5 -6 6 -1 11 2 17
5 13 3 -3 4 -12 1 -19z m373 -12 c-14 -14 -24 0 -16 21 6 15 8 15 16 3 6 -9 5
-19 0 -24z m125 16 c0 -18 -20 -15 -23 4 -3 10 1 15 10 12 7 -3 13 -10 13 -16z
m-244 -5 c-1 -12 -15 -9 -19 4 -3 6 1 10 8 8 6 -3 11 -8 11 -12z m69 -72 c0
-8 -4 -15 -10 -15 -5 0 -10 7 -10 15 0 8 5 15 10 15 6 0 10 -7 10 -15z m118
-2 c-4 -22 -22 -20 -26 1 -2 10 3 16 13 16 10 0 15 -7 13 -17z m122 2 c0 -8
-4 -15 -10 -15 -5 0 -10 7 -10 15 0 8 5 15 10 15 6 0 10 -7 10 -15z m-285 -75
c3 -5 1 -10 -4 -10 -6 0 -11 5 -11 10 0 6 2 10 4 10 3 0 8 -4 11 -10z m105 -5
c0 -8 -4 -15 -10 -15 -5 0 -10 7 -10 15 0 8 5 15 10 15 6 0 10 -7 10 -15z
m122 0 c0 -5 -5 -11 -11 -13 -6 -2 -11 4 -11 13 0 9 5 15 11 13 6 -2 11 -8 11
-13z m-172 -75 c0 -5 -4 -10 -10 -10 -5 0 -10 5 -10 10 0 6 5 10 10 10 6 0 10
-4 10 -10z m110 -5 c0 -8 -4 -15 -10 -15 -5 0 -10 7 -10 15 0 8 5 15 10 15 6
0 10 -7 10 -15z m-58 -70 c0 -5 -5 -11 -11 -13 -6 -2 -11 4 -11 13 0 9 5 15
11 13 6 -2 11 -8 11 -13z"/>
<path d="M5230 7069 c47 -17 108 -36 135 -44 28 -7 120 -34 205 -60 209 -63
234 -68 238 -56 2 6 10 11 17 11 8 0 20 6 27 13 7 6 36 27 63 46 28 19 69 54
93 78 l43 43 -453 -1 -453 -1 85 -29z"/>
<path d="M6240 7081 c0 -28 -54 -78 -92 -87 -18 -3 -42 -16 -53 -28 -57 -58
-128 -116 -143 -116 -31 -1 7 -16 120 -49 98 -28 138 -31 138 -11 0 11 99 70
119 70 22 0 91 63 91 83 0 8 -7 20 -15 27 -32 26 3 110 46 110 10 0 21 5 24
10 4 6 -37 10 -114 10 -113 0 -121 -1 -121 -19z m90 -140 c6 -2 -32 -31 -41
-31 -4 0 -9 8 -11 18 -4 14 0 18 21 16 14 -1 28 -2 31 -3z"/>
<path d="M6507 7063 c-8 -48 3 -59 35 -33 15 11 30 20 36 20 5 0 22 11 38 25
l29 25 -66 0 -66 0 -6 -37z"/>
<path d="M6764 7079 c-10 -11 -48 -40 -84 -64 -36 -24 -83 -60 -105 -79 -22
-20 -43 -36 -48 -36 -10 0 -103 -65 -150 -106 -21 -18 -53 -39 -70 -48 -22
-10 -27 -16 -17 -20 8 -3 35 -13 59 -21 52 -18 142 -85 178 -132 29 -38 39
-41 48 -13 3 11 11 20 16 20 6 0 26 15 45 34 49 47 97 69 136 61 17 -4 50 -8
73 -10 23 -1 54 -10 69 -20 17 -12 37 -16 59 -12 39 6 135 66 142 88 3 9 13
20 23 23 9 3 32 17 51 31 19 14 48 25 65 25 31 0 117 29 157 53 16 9 23 9 26
1 5 -14 46 -3 113 30 34 18 46 29 48 50 3 21 -2 29 -17 33 -17 4 -20 12 -18
39 2 39 6 40 73 16 30 -12 57 -16 69 -11 36 14 55 10 55 -11 0 -13 7 -20 20
-20 13 0 20 7 20 20 0 13 7 20 19 20 21 0 61 44 61 66 0 12 -92 14 -548 14
-542 0 -549 0 -568 -21z"/>
<path d="M7988 7073 c-2 -5 0 -46 3 -93 l5 -85 2 93 c2 83 -1 106 -10 85z"/>
<path d="M7680 6976 c0 -18 36 -22 60 -6 13 9 13 10 0 10 -8 0 -25 3 -37 6
-17 5 -23 2 -23 -10z"/>
<path d="M7915 6900 c-4 -6 -2 -17 4 -24 6 -7 8 -16 4 -19 -3 -4 3 -7 14 -7
23 0 36 33 20 49 -14 14 -34 14 -42 1z"/>
<path d="M7940 6731 c0 -11 5 -23 10 -26 6 -4 10 5 10 19 0 14 -4 26 -10 26
-5 0 -10 -9 -10 -19z"/>
<path d="M7865 6644 c-33 -8 -80 -21 -105 -29 -26 -8 -87 -14 -145 -14 -121
-1 -169 -11 -204 -45 -23 -22 -34 -25 -81 -23 -59 3 -161 -22 -167 -40 -2 -6
5 -14 17 -18 21 -7 21 -7 4 -27 -15 -15 -26 -18 -54 -13 -46 9 -48 12 -21 31
l22 16 -20 20 c-19 17 -25 18 -56 6 -28 -9 -42 -10 -66 -1 -44 17 -296 6 -327
-14 -13 -8 -36 -16 -50 -18 -29 -3 -30 -10 -7 -60 25 -55 35 -109 41 -220 5
-104 21 -195 34 -195 3 0 11 12 18 28 11 26 11 26 5 -8 -3 -19 -11 -38 -17
-42 -8 -6 -8 -8 0 -8 6 0 18 10 26 22 15 23 43 17 34 -8 -3 -8 -1 -14 5 -14 6
0 1 -13 -10 -29 -30 -42 -27 -56 12 -56 25 0 31 -4 29 -17 -2 -10 2 -18 8 -18
5 0 10 -7 10 -16 0 -11 -6 -14 -20 -9 -25 8 -39 -20 -22 -44 7 -9 17 -27 23
-41 5 -14 17 -38 25 -54 20 -41 18 -50 -21 -89 -39 -39 -42 -52 -19 -105 9
-20 24 -82 34 -137 31 -172 48 -222 96 -281 46 -57 51 -69 57 -149 3 -36 13
-63 37 -97 23 -33 34 -61 38 -96 4 -49 4 -50 -30 -62 -37 -14 -74 -59 -81
-100 -2 -14 -2 -19 0 -12 5 13 33 17 33 4 0 -4 13 -68 29 -143 16 -75 37 -207
46 -295 27 -266 21 -242 58 -242 18 -1 44 -4 60 -8 21 -5 27 -3 27 11 0 14 7
15 58 9 31 -5 104 -8 162 -8 101 1 107 2 178 39 57 30 79 36 107 32 19 -3 37
-2 40 2 8 14 60 20 98 11 36 -8 118 5 115 19 -6 18 25 51 47 51 l25 0 0 375 0
375 -35 0 c-20 0 -50 -7 -66 -16 -21 -11 -54 -15 -107 -13 -42 1 -162 -2 -266
-6 -143 -6 -187 -5 -182 3 4 7 13 12 20 12 8 0 19 6 25 14 6 7 30 16 54 20 53
8 127 36 127 47 0 14 28 11 34 -3 5 -10 7 -10 12 0 8 17 64 15 85 -4 13 -12
28 -15 54 -10 19 4 35 11 35 16 0 6 9 10 20 10 12 0 17 5 14 14 -3 8 -1 17 5
21 6 3 11 -2 11 -12 1 -28 45 -53 103 -59 37 -4 48 -3 37 5 -12 9 -12 11 3 17
16 6 17 36 17 385 l0 379 -92 -1 c-51 0 -118 -5 -148 -10 -96 -17 -190 -22
-190 -10 0 17 31 28 100 35 94 9 130 17 130 27 0 5 -9 9 -20 9 -11 0 -20 6
-20 13 0 8 -3 9 -8 1 -10 -16 -94 -28 -192 -29 -47 0 -91 -4 -98 -8 -7 -5 -88
-15 -180 -23 -92 -7 -207 -18 -257 -23 -80 -8 -94 -7 -127 10 -69 35 -63 64
22 104 33 16 68 37 77 47 15 17 15 22 0 72 -22 70 -22 81 8 100 21 14 23 21
18 49 -3 17 -13 42 -22 54 -15 20 -22 21 -88 16 -93 -8 -96 8 -6 30 65 16 68
16 85 -3 21 -22 36 -25 58 -9 11 8 12 12 3 16 -18 7 -16 30 3 37 51 19 113
-69 114 -161 l0 -53 39 0 c22 0 43 5 46 10 3 6 20 10 36 10 36 0 94 23 105 42
5 8 17 17 27 21 9 3 17 13 17 22 0 12 15 15 80 15 69 0 80 2 80 18 0 15 18 28
68 49 8 3 12 -5 12 -24 0 -26 5 -31 38 -41 20 -6 55 -14 77 -17 44 -8 55 -18
48 -46 -4 -15 -15 -19 -53 -19 -30 0 -52 -5 -60 -15 -18 -22 -7 -28 49 -27 36
1 53 -3 59 -14 5 -9 12 -15 15 -15 21 3 29 -1 39 -24 14 -30 57 -34 88 -8 19
17 20 29 20 382 0 402 -4 442 -49 440 -14 -1 -53 -7 -86 -15z m-855 -198 c6
-9 6 -21 -3 -39 -15 -32 -54 -36 -87 -9 -20 16 -21 21 -9 40 20 31 75 36 99 8z
m-30 -147 c0 -7 9 -9 24 -5 32 8 105 -22 85 -35 -8 -5 -22 -9 -31 -9 -10 0
-18 -5 -18 -11 0 -5 -4 -7 -10 -4 -5 3 -16 3 -22 -1 -9 -6 -5 -10 12 -15 23
-6 22 -7 -7 -8 -18 -1 -52 -6 -75 -12 -58 -15 -98 0 -98 36 0 22 9 30 53 50
57 26 87 31 87 14z m-73 -165 c-3 -3 -12 -4 -19 -1 -8 3 -5 6 6 6 11 1 17 -2
13 -5z m586 -551 c-7 -2 -19 -2 -25 0 -7 3 -2 5 12 5 14 0 19 -2 13 -5z m464
-119 c-3 -3 -12 -4 -19 -1 -8 3 -5 6 6 6 11 1 17 -2 13 -5z m-187 -474 c-13
-9 -13 -11 0 -20 20 -13 6 -13 -24 1 -31 14 -25 29 12 29 21 0 24 -2 12 -10z
m-22 -47 c-10 -2 -26 -2 -35 0 -10 3 -2 5 17 5 19 0 27 -2 18 -5z m-773 -313
c3 -5 1 -10 -4 -10 -6 0 -11 5 -11 10 0 6 2 10 4 10 3 0 8 -4 11 -10z m997
-462 c-12 -12 -35 -1 -27 12 3 5 13 6 21 3 10 -4 12 -9 6 -15z m-592 -147 c0
-19 -28 -37 -39 -25 -3 4 -1 9 6 11 7 2 9 11 6 19 -3 8 1 14 11 14 9 0 16 -8
16 -19z m223 -1 c3 -10 -1 -24 -9 -31 -19 -15 -48 -3 -40 17 3 9 6 20 6 25 0
18 38 9 43 -11z"/>
<path d="M4884 6395 c-9 -14 -15 -27 -13 -30 3 -2 12 10 21 26 21 36 15 39 -8
4z"/>
<path d="M4839 6328 c-10 -19 -165 -216 -295 -376 -32 -39 -60 -50 -48 -18 3
8 -6 18 -23 25 -32 13 -94 21 -89 12 2 -3 -3 -15 -11 -26 -13 -16 -15 -17 -10
-2 4 9 2 17 -3 17 -9 0 -27 -48 -33 -89 -2 -14 -10 -27 -17 -29 -9 -3 -11 1
-7 12 4 9 2 16 -2 16 -9 0 -23 -25 -26 -45 0 -5 -6 -9 -13 -7 -7 1 -12 -2 -12
-8 0 -5 5 -10 10 -10 6 0 10 -4 10 -10 0 -5 -7 -10 -15 -10 -8 0 -15 4 -15 10
0 5 -7 7 -15 4 -8 -4 -15 -12 -15 -20 0 -16 -16 -19 -24 -5 -4 5 0 12 6 14 8
3 6 6 -4 6 -11 1 -20 -9 -24 -24 -3 -14 -12 -25 -20 -25 -17 0 -18 12 -2 28 9
9 9 12 0 12 -7 0 -15 -7 -19 -16 -3 -8 -12 -13 -19 -10 -8 3 -24 -5 -35 -17
-17 -17 -21 -18 -16 -4 4 9 2 17 -3 17 -6 0 -10 -4 -10 -10 0 -5 -16 -10 -35
-10 -19 0 -35 -5 -35 -11 0 -5 -13 -15 -30 -20 -19 -7 -30 -18 -30 -30 0 -10
-6 -19 -13 -19 -8 0 -19 -17 -25 -39 -15 -49 -15 -51 3 -51 17 0 20 -16 5 -25
-8 -5 -7 -11 0 -20 7 -8 9 -19 5 -25 -3 -5 0 -13 9 -16 8 -3 12 -12 9 -19 -6
-17 15 -85 27 -85 5 0 10 -10 12 -22 2 -16 9 -22 22 -20 14 3 17 -1 12 -14 -4
-9 0 -24 7 -33 30 -34 26 -49 -37 -148 -110 -173 -349 -520 -562 -818 -24 -33
-95 -132 -158 -220 -62 -88 -122 -171 -133 -185 -35 -45 -68 -106 -51 -92 44
35 89 83 137 147 29 39 59 78 68 89 15 19 490 723 508 754 6 9 12 19 15 22 3
3 23 32 45 65 22 33 58 82 80 110 23 27 57 84 77 126 33 70 39 77 69 82 19 2
81 14 139 25 58 11 132 23 165 27 32 3 62 8 65 10 3 2 39 6 80 10 41 3 94 11
118 16 41 9 327 29 420 29 l42 0 0 44 c0 25 4 57 10 71 13 34 -4 103 -42 172
l-30 52 -41 -26 c-23 -14 -60 -43 -83 -63 -23 -21 -52 -43 -65 -51 -13 -7 -40
-31 -60 -53 l-37 -41 -21 25 c-11 14 -20 32 -21 41 0 9 -2 18 -5 21 -3 3 -8
68 -11 144 -4 101 -9 143 -19 155 -8 8 -15 21 -15 27 0 7 -4 12 -9 12 -5 0 -7
-9 -4 -20 3 -11 0 -20 -6 -20 -10 0 -15 16 -14 48 1 15 -9 16 -25 0 -6 -6 -15
-8 -19 -4 -5 4 0 13 9 20 20 14 14 28 -8 19 -8 -3 -14 1 -14 11 0 9 4 16 9 16
24 0 321 403 308 417 -3 2 -11 -6 -18 -19z m-369 -398 c0 -5 -2 -10 -4 -10 -3
0 -8 5 -11 10 -3 6 -1 10 4 10 6 0 11 -4 11 -10z m-100 -30 c0 -5 -2 -10 -4
-10 -3 0 -8 5 -11 10 -3 6 -1 10 4 10 6 0 11 -4 11 -10z m116 -27 c-10 -10
-19 5 -10 18 6 11 8 11 12 0 2 -7 1 -15 -2 -18z m45 4 c-13 -13 -26 -3 -16 12
3 6 11 8 17 5 6 -4 6 -10 -1 -17z m-166 -7 c3 -5 1 -10 -4 -10 -6 0 -11 5 -11
10 0 6 2 10 4 10 3 0 8 -4 11 -10z m30 -30 c3 -5 1 -10 -4 -10 -6 0 -11 5 -11
10 0 6 2 10 4 10 3 0 8 -4 11 -10z m115 -6 c0 -8 -5 -12 -10 -9 -6 4 -8 11 -5
16 9 14 15 11 15 -7z m40 7 c0 -6 -4 -13 -10 -16 -5 -3 -10 1 -10 9 0 9 5 16
10 16 6 0 10 -4 10 -9z m35 -1 c-3 -5 -10 -10 -16 -10 -5 0 -9 5 -9 10 0 6 7
10 16 10 8 0 12 -4 9 -10z m-225 -10 c0 -5 -4 -10 -10 -10 -5 0 -10 5 -10 10
0 6 5 10 10 10 6 0 10 -4 10 -10z m-40 -21 c0 -5 -7 -9 -15 -9 -15 0 -20 12
-9 23 8 8 24 -1 24 -14z m70 1 c0 -5 -5 -10 -11 -10 -5 0 -7 5 -4 10 3 6 8 10
11 10 2 0 4 -4 4 -10z m196 -17 c-10 -10 -19 5 -10 18 6 11 8 11 12 0 2 -7 1
-15 -2 -18z m-235 -6 c-13 -13 -26 -3 -16 12 3 6 11 8 17 5 6 -4 6 -10 -1 -17z
m209 13 c0 -5 -4 -10 -10 -10 -5 0 -10 5 -10 10 0 6 5 10 10 10 6 0 10 -4 10
-10z m-252 -31 c-2 -6 -8 -10 -13 -10 -5 0 -11 4 -13 10 -2 6 4 11 13 11 9 0
15 -5 13 -11z m82 1 c0 -5 -4 -10 -10 -10 -5 0 -10 5 -10 10 0 6 5 10 10 10 6
0 10 -4 10 -10z m-140 -6 c0 -20 -24 -84 -32 -84 -9 0 -6 27 7 68 7 20 25 32
25 16z m100 -9 c0 -8 -7 -15 -15 -15 -16 0 -20 12 -8 23 11 12 23 8 23 -8z
m220 5 c0 -5 -4 -10 -10 -10 -5 0 -10 5 -10 10 0 6 5 10 10 10 6 0 10 -4 10
-10z m30 0 c0 -5 -5 -10 -11 -10 -5 0 -7 5 -4 10 3 6 8 10 11 10 2 0 4 -4 4
-10z m-400 -20 c0 -5 -7 -10 -15 -10 -8 0 -15 5 -15 10 0 6 7 10 15 10 8 0 15
-4 15 -10z m91 -3 c-1 -26 -14 -77 -20 -77 -14 0 -21 13 -13 24 7 11 8 16 10
49 2 17 24 21 23 4z m-181 -7 c0 -5 -7 -10 -16 -10 -8 0 -12 5 -9 10 3 6 10
10 16 10 5 0 9 -4 9 -10z m280 0 c0 -5 -4 -10 -9 -10 -6 0 -13 5 -16 10 -3 6
1 10 9 10 9 0 16 -4 16 -10z m-240 -10 c0 -5 -7 -10 -16 -10 -8 0 -12 5 -9 10
3 6 10 10 16 10 5 0 9 -4 9 -10z m190 0 c0 -5 -7 -10 -16 -10 -8 0 -12 5 -9
10 3 6 10 10 16 10 5 0 9 -4 9 -10z m202 -12 c-7 -7 -12 -8 -12 -2 0 14 12 26
19 19 2 -3 -1 -11 -7 -17z m34 -5 c-10 -10 -19 5 -10 18 6 11 8 11 12 0 2 -7
1 -15 -2 -18z m-576 7 c0 -5 -4 -10 -10 -10 -5 0 -10 5 -10 10 0 6 5 10 10 10
6 0 10 -4 10 -10z m26 -17 c-10 -10 -19 5 -10 18 6 11 8 11 12 0 2 -7 1 -15
-2 -18z m164 17 c0 -5 -7 -10 -15 -10 -8 0 -15 5 -15 10 0 6 7 10 15 10 8 0
15 -4 15 -10z m185 -9 c3 -5 1 -12 -5 -16 -5 -3 -10 1 -10 9 0 18 6 21 15 7z
m40 -1 c3 -5 1 -10 -4 -10 -6 0 -11 5 -11 10 0 6 2 10 4 10 3 0 8 -4 11 -10z
m-315 -10 c0 -5 -4 -10 -10 -10 -5 0 -10 5 -10 10 0 6 5 10 10 10 6 0 10 -4
10 -10z m230 0 c0 -5 -4 -10 -10 -10 -5 0 -10 5 -10 10 0 6 5 10 10 10 6 0 10
-4 10 -10z m-190 -10 c0 -5 -4 -10 -10 -10 -5 0 -10 5 -10 10 0 6 5 10 10 10
6 0 10 -4 10 -10z m40 -10 c0 -5 -4 -10 -10 -10 -5 0 -10 5 -10 10 0 6 5 10
10 10 6 0 10 -4 10 -10z m416 -17 c-10 -10 -19 5 -10 18 6 11 8 11 12 0 2 -7
1 -15 -2 -18z m-272 -4 c-3 -5 -10 -7 -15 -3 -5 3 -7 10 -3 15 3 5 10 7 15 3
5 -3 7 -10 3 -15z m56 11 c0 -5 -4 -10 -10 -10 -5 0 -10 5 -10 10 0 6 5 10 10
10 6 0 10 -4 10 -10z m30 0 c0 -5 -2 -10 -4 -10 -3 0 -8 5 -11 10 -3 6 -1 10
4 10 6 0 11 -4 11 -10z m-140 -20 c0 -5 -4 -10 -10 -10 -5 0 -10 5 -10 10 0 6
5 10 10 10 6 0 10 -4 10 -10z m100 -10 c0 -5 -4 -10 -10 -10 -5 0 -10 5 -10
10 0 6 5 10 10 10 6 0 10 -4 10 -10z m45 0 c3 -5 1 -10 -4 -10 -6 0 -11 5 -11
10 0 6 2 10 4 10 3 0 8 -4 11 -10z m205 -20 c0 -5 -4 -10 -10 -10 -5 0 -10 5
-10 10 0 6 5 10 10 10 6 0 10 -4 10 -10z m-210 -10 c0 -5 -4 -10 -10 -10 -5 0
-10 5 -10 10 0 6 5 10 10 10 6 0 10 -4 10 -10z m35 0 c3 -5 1 -10 -4 -10 -6 0
-11 5 -11 10 0 6 2 10 4 10 3 0 8 -4 11 -10z m-85 -10 c0 -5 -4 -10 -10 -10
-5 0 -10 5 -10 10 0 6 5 10 10 10 6 0 10 -4 10 -10z m250 -19 c0 -6 -4 -13
-10 -16 -5 -3 -10 1 -10 9 0 9 5 16 10 16 6 0 10 -4 10 -9z m-210 -11 c0 -5
-4 -10 -10 -10 -5 0 -10 5 -10 10 0 6 5 10 10 10 6 0 10 -4 10 -10z m50 0 c0
-5 -2 -10 -4 -10 -3 0 -8 5 -11 10 -3 6 -1 10 4 10 6 0 11 -4 11 -10z m-528
-32 c-6 -6 -14 -9 -17 -6 -3 3 -3 13 1 22 5 12 10 14 17 7 8 -8 8 -14 -1 -23z
m56 1 c-2 -6 -8 -10 -13 -10 -5 0 -11 4 -13 10 -2 6 4 11 13 11 9 0 15 -5 13
-11z m652 -9 c0 -5 -5 -10 -11 -10 -5 0 -7 5 -4 10 3 6 8 10 11 10 2 0 4 -4 4
-10z m-606 -21 c-3 -5 -10 -7 -15 -3 -5 3 -7 10 -3 15 3 5 10 7 15 3 5 -3 7
-10 3 -15z m-84 1 c0 -5 -4 -10 -10 -10 -5 0 -10 5 -10 10 0 6 5 10 10 10 6 0
10 -4 10 -10z m180 6 c0 -3 -4 -8 -10 -11 -5 -3 -10 -1 -10 4 0 6 5 11 10 11
6 0 10 -2 10 -4z m-130 -26 c0 -5 -4 -10 -10 -10 -5 0 -10 5 -10 10 0 6 5 10
10 10 6 0 10 -4 10 -10z m90 6 c0 -11 -19 -15 -25 -6 -3 5 1 10 9 10 9 0 16
-2 16 -4z m-120 -26 c0 -5 -5 -10 -11 -10 -5 0 -7 5 -4 10 3 6 8 10 11 10 2 0
4 -4 4 -10z m75 0 c3 -5 1 -10 -4 -10 -6 0 -11 5 -11 10 0 6 2 10 4 10 3 0 8
-4 11 -10z m225 -40 c0 -5 -2 -10 -4 -10 -3 0 -8 5 -11 10 -3 6 -1 10 4 10 6
0 11 -4 11 -10z m140 -40 c0 -5 -2 -10 -4 -10 -3 0 -8 5 -11 10 -3 6 -1 10 4
10 6 0 11 -4 11 -10z m55 -70 c3 -5 1 -10 -4 -10 -6 0 -11 5 -11 10 0 6 2 10
4 10 3 0 8 -4 11 -10z m-425 -14 c0 -3 -4 -8 -10 -11 -5 -3 -10 -1 -10 4 0 6
5 11 10 11 6 0 10 -2 10 -4z"/>
<path d="M6445 6278 c-38 -10 -100 -27 -136 -38 -91 -28 -225 -117 -206 -136
6 -6 105 23 122 36 6 4 34 13 64 19 29 6 81 27 116 46 l62 35 56 -19 c30 -11
58 -17 61 -14 10 10 7 55 -3 48 -6 -3 -13 1 -18 8 -17 30 -46 33 -118 15z"/>
<path d="M6160 5878 c0 -9 -6 -19 -12 -21 -10 -4 -10 -6 0 -6 14 -1 28 26 18
36 -3 4 -6 -1 -6 -9z"/>
<path d="M7920 5700 c0 -5 6 -10 14 -10 8 0 18 5 21 10 3 6 -3 10 -14 10 -12
0 -21 -4 -21 -10z"/>
<path d="M7888 5693 c7 -3 16 -2 19 1 4 3 -2 6 -13 5 -11 0 -14 -3 -6 -6z"/>
<path d="M6220 5600 c-28 -15 -75 -34 -87 -35 -6 0 -19 -8 -30 -16 -10 -9 -28
-20 -40 -23 -13 -4 -23 -12 -23 -17 0 -5 -11 -14 -25 -19 -14 -5 -25 -14 -25
-19 0 -6 -12 -21 -27 -35 -35 -33 -21 -46 22 -21 57 33 220 147 223 156 2 5 9
9 17 9 7 0 18 7 25 15 10 12 10 15 -1 14 -8 0 -21 -4 -29 -9z"/>
<path d="M18 5463 c-17 -4 -18 -122 -18 -2289 l0 -2284 3642 0 c2002 0 3638 3
3635 6 -3 4 -48 8 -99 9 -51 2 -165 6 -253 10 -88 4 -248 8 -355 9 -124 1
-203 6 -216 14 -17 9 -22 24 -27 88 -4 42 -7 100 -7 128 0 28 -9 110 -19 181
-10 72 -18 131 -16 133 1 1 14 -3 28 -9 20 -9 33 -9 56 1 56 23 87 3 82 -51
-5 -50 58 -88 84 -52 13 17 17 16 86 -7 44 -16 77 -34 87 -47 12 -19 23 -23
68 -23 36 0 54 -4 55 -12 1 -7 2 -17 4 -23 1 -5 3 -18 3 -28 2 -13 10 -17 33
-15 21 2 34 -3 41 -15 16 -30 58 -40 80 -20 17 15 21 15 28 3 6 -8 10 -21 10
-27 0 -8 15 -13 39 -13 54 0 71 -8 71 -34 0 -22 2 -23 120 -20 66 2 125 6 130
9 12 8 13 42 2 49 -5 3 -26 1 -46 -5 -43 -12 -71 3 -62 33 3 14 1 16 -7 10 -7
-5 -29 -12 -50 -14 -48 -5 -65 18 -45 59 22 44 79 40 103 -8 13 -23 20 -27 48
-25 46 5 86 23 94 42 4 12 8 13 14 3 5 -9 10 -5 14 14 5 19 13 27 29 26 11 0
15 -3 8 -6 -6 -2 -10 -9 -7 -14 3 -4 28 0 55 11 38 15 56 17 82 10 18 -6 60
-10 94 -10 52 0 64 4 84 25 36 38 47 31 62 -37 12 -58 16 -64 51 -82 31 -15
38 -23 35 -41 -5 -21 18 -45 42 -45 7 0 10 122 10 355 0 195 -2 355 -5 355 -3
0 -14 -5 -25 -10 -11 -6 -28 -14 -38 -19 -9 -4 -27 -4 -40 0 -27 10 -52 2 -52
-18 0 -10 -6 -13 -16 -9 -9 3 -29 6 -45 6 -21 0 -29 5 -29 17 0 9 -10 27 -22
40 -36 39 -15 58 63 59 80 0 114 10 99 29 -9 10 -6 14 12 18 13 2 -34 5 -103
5 -100 1 -138 5 -185 21 -32 12 -78 21 -101 21 -24 0 -43 5 -43 10 0 9 37 15
69 10 8 -1 36 10 63 25 38 21 66 28 126 31 42 1 103 6 135 9 38 5 57 3 57 -4
0 -6 7 -11 15 -11 8 0 20 -9 27 -20 38 -60 38 -50 38 890 0 878 -1 910 -18
910 -11 0 -32 7 -49 15 -16 8 -64 21 -106 29 -72 14 -78 14 -129 -6 -29 -11
-63 -25 -76 -29 -13 -5 -20 -14 -17 -19 8 -13 -42 -32 -65 -25 -12 4 -24 -3
-36 -20 -16 -21 -33 -28 -109 -40 -153 -25 -245 -15 -245 26 0 11 -7 19 -17
20 -10 1 19 8 64 17 46 10 83 20 83 25 0 4 0 12 0 17 0 16 -99 12 -162 -7
l-58 -18 6 -175 c8 -231 20 -371 38 -450 8 -36 18 -100 22 -142 7 -83 20 -102
27 -40 4 31 4 29 4 -10 -1 -37 -5 -49 -19 -54 -31 -9 -46 -52 -36 -97 6 -26 5
-44 -2 -51 -5 -5 -11 -39 -11 -76 -2 -62 -2 -61 -10 29 -5 52 -15 109 -24 127
-8 18 -15 35 -15 38 0 4 -18 35 -40 68 -22 34 -40 68 -40 75 0 7 -6 13 -14 13
-7 0 -19 14 -26 30 -7 17 -15 28 -18 25 -3 -3 -10 5 -17 18 -6 13 -18 21 -29
19 -14 -3 -16 1 -11 17 5 15 2 21 -10 21 -9 0 -13 5 -10 10 3 6 -1 10 -9 10
-9 0 -16 6 -16 13 0 6 -14 21 -30 32 -16 11 -30 25 -30 30 -1 11 -132 105
-147 105 -4 0 9 -15 29 -34 27 -25 35 -39 31 -55 -3 -12 -1 -21 5 -21 6 0 13
8 15 18 3 10 5 6 6 -10 1 -29 15 -38 24 -15 3 6 6 0 6 -15 1 -16 6 -28 12 -28
5 0 7 5 3 12 -4 7 -3 8 4 4 7 -4 12 -19 13 -34 0 -15 3 -21 6 -14 8 19 23 14
23 -9 0 -11 4 -18 9 -14 13 7 29 -25 26 -48 -3 -15 -1 -16 11 -6 11 9 14 8 14
-5 0 -9 4 -16 8 -16 4 0 16 -13 25 -29 23 -39 49 -113 37 -106 -5 3 -3 -13 5
-36 9 -24 11 -47 7 -56 -12 -20 -24 -18 -34 4 -6 13 -7 11 -4 -10 2 -15 -1
-30 -5 -33 -5 -3 -7 -36 -4 -74 2 -43 0 -72 -7 -76 -15 -9 -29 17 -25 44 5 26
-10 39 -25 24 -14 -14 -13 -73 1 -81 15 -10 -9 -81 -27 -81 -9 0 -24 7 -33 16
-16 14 -23 15 -49 4 -18 -7 -49 -30 -70 -52 -22 -21 -45 -38 -53 -38 -14 0
-77 66 -77 80 0 5 -5 10 -11 12 -5 2 -11 12 -13 23 -2 11 -8 21 -14 21 -7 1
-14 3 -17 4 -3 1 -9 3 -14 4 -5 0 -13 4 -17 8 -3 4 3 6 14 3 30 -5 35 9 12 30
-11 10 -20 15 -20 10 0 -4 -7 -2 -15 5 -9 7 -14 18 -11 25 2 6 -2 12 -9 12 -7
0 -11 -7 -8 -16 3 -11 0 -10 -13 4 -11 14 -15 15 -11 4 3 -9 1 -22 -4 -30 -8
-12 -10 -12 -18 0 -6 9 -8 4 -7 -17 2 -41 14 -51 32 -28 8 11 14 16 14 10 0
-5 4 -3 9 4 7 11 9 11 14 -2 4 -9 3 -15 -1 -15 -22 4 -33 -3 -29 -16 4 -8 1
-17 -5 -21 -6 -4 -8 -3 -5 2 3 5 -2 10 -12 10 -10 0 -18 -6 -18 -12 0 -7 7
-10 16 -6 12 4 11 0 -4 -18 -11 -13 -14 -20 -7 -16 7 4 20 2 28 -5 13 -10 12
-14 -2 -30 -10 -11 -14 -19 -9 -19 4 0 2 -6 -4 -14 -7 -8 -8 -17 -3 -20 6 -3
15 1 22 9 7 8 9 15 5 15 -4 0 -2 6 4 13 6 8 8 17 4 20 -3 4 -1 7 5 7 6 0 9
-14 8 -33 -2 -18 -8 -31 -15 -29 -6 1 -14 -5 -17 -13 -3 -8 -10 -12 -16 -9 -5
3 -15 -1 -21 -9 -14 -17 -84 -30 -92 -17 -3 4 -13 7 -23 6 -9 -2 -21 2 -25 8
-6 7 -7 4 -3 -7 3 -9 1 -17 -3 -17 -5 0 -11 5 -13 12 -2 6 -11 12 -20 14 -14
2 -15 -2 -6 -22 8 -18 14 -21 20 -12 6 10 8 10 8 -1 0 -10 3 -11 13 -2 8 6 18
7 22 3 5 -4 5 -2 2 4 -3 6 0 11 7 11 12 0 13 -6 7 -36 -1 -2 -7 2 -15 8 -9 8
-16 8 -20 2 -4 -5 -17 -8 -30 -5 -16 3 -26 -2 -30 -12 -5 -13 -9 -14 -21 -4
-12 10 -15 9 -15 -4 0 -9 -7 -16 -15 -16 -8 0 -15 -4 -15 -10 0 -14 -43 -12
-59 3 -8 6 -11 7 -8 1 3 -6 0 -11 -8 -11 -8 0 -12 3 -10 6 2 4 -10 14 -26 24
-18 10 -27 12 -23 4 5 -8 3 -8 -7 1 -8 7 -14 18 -14 25 0 7 -4 12 -10 12 -5 0
-16 4 -22 8 -7 5 -13 4 -13 0 0 -5 -9 -9 -20 -9 -12 0 -19 5 -16 13 9 23 -17
26 -35 4 -10 -12 -22 -22 -26 -21 -4 0 -8 -6 -8 -12 0 -7 -6 -13 -13 -13 -15
0 -62 -43 -62 -56 0 -13 43 -4 48 10 3 10 0 10 -17 2 -29 -16 -26 -7 4 13 14
9 25 13 24 9 -5 -30 10 -38 39 -20 6 5 12 7 13 5 6 -25 6 -37 -1 -33 -5 3 -11
1 -15 -4 -3 -5 -14 -8 -24 -6 -11 2 -22 -3 -25 -10 -6 -16 10 -30 18 -16 4 5
14 8 24 6 9 -1 25 5 35 13 10 9 18 12 17 7 -2 -6 -1 -12 0 -15 5 -15 8 -41 3
-36 -4 3 -12 1 -20 -5 -13 -11 -14 -10 -17 11 0 6 -5 10 -11 9 -5 0 -9 -6 -7
-14 1 -7 -2 -16 -8 -20 -5 -3 -7 0 -4 8 3 8 -1 14 -10 14 -19 0 -16 -37 4 -38
8 -1 18 -1 22 0 3 0 5 -7 3 -17 -1 -9 -8 -16 -14 -15 -14 4 -14 -10 0 -24 8
-8 7 -13 -2 -18 -7 -5 -10 -4 -6 1 7 13 -19 47 -31 40 -9 -5 -10 39 -1 74 3 9
-2 14 -11 12 -12 -3 -13 -1 -2 9 18 19 15 34 -5 18 -11 -10 -14 -10 -9 -1 4 6
2 12 -3 12 -6 0 -11 -5 -11 -11 0 -5 -4 -7 -10 -4 -6 3 -7 -1 -4 -9 3 -9 1
-16 -4 -16 -6 0 -23 -11 -37 -24 -26 -24 -47 -28 -62 -11 -4 4 -3 5 3 2 7 -4
15 1 18 10 4 10 4 14 0 10 -4 -4 -14 -1 -22 6 -13 10 -15 9 -8 -3 6 -11 4 -11
-6 1 -7 9 -21 15 -30 13 -10 -1 -21 3 -25 8 -3 7 -1 8 5 4 7 -4 12 -2 12 3 0
6 -9 11 -20 11 -11 0 -20 4 -20 9 0 5 -12 12 -26 15 -23 6 -24 9 -12 24 11 15
11 16 -2 6 -13 -9 -35 -11 -42 -4 -2 1 -16 3 -31 4 -16 1 -32 8 -36 15 -6 10
-10 9 -14 -4 -4 -9 -3 -14 2 -10 12 7 53 -44 45 -56 -3 -5 -15 -4 -27 3 -20
10 -21 10 -8 -5 11 -15 11 -17 -2 -17 -8 0 -20 -7 -27 -15 -9 -10 -16 -12 -25
-5 -8 6 -15 6 -23 -2 -17 -17 -15 -33 3 -18 9 7 15 8 15 2 0 -15 -25 -22 -41
-11 -8 5 -10 9 -5 9 6 0 2 6 -7 12 -10 7 -46 13 -82 13 -51 0 -65 3 -65 15 0
13 -1 13 -11 0 -8 -12 -9 -11 -7 5 2 15 -2 20 -20 19 -23 -1 -22 8 1 12 7 2
22 5 34 8 13 3 25 0 28 -5 4 -5 11 -7 16 -3 12 7 -31 41 -45 36 -5 -2 -15 6
-23 17 -8 12 -20 18 -31 15 -13 -4 -12 -2 3 7 11 8 22 14 25 14 3 0 11 4 17 8
8 5 13 4 13 -2 0 -6 -5 -11 -12 -11 -19 0 1 -14 22 -15 11 -1 26 5 33 14 10
12 9 13 -2 7 -8 -5 -17 -3 -22 5 -11 18 -11 32 -1 25 15 -9 9 19 -7 34 -13 13
-14 12 -9 -2 7 -18 -18 -45 -42 -44 -8 1 -15 8 -15 16 -1 8 -7 14 -14 12 -7
-1 -9 2 -6 9 5 7 15 3 30 -11 23 -21 37 -16 41 15 0 6 2 17 3 25 1 13 2 13 11
0 9 -13 11 -13 20 0 12 18 8 33 -8 36 -7 1 -8 0 -2 -3 5 -2 10 -9 10 -15 0 -6
-6 -6 -15 2 -11 9 -12 17 -4 32 8 14 8 23 0 31 -8 8 -11 6 -11 -5 0 -9 -5 -20
-12 -24 -7 -4 -8 -3 -4 4 4 7 2 20 -3 29 -6 10 -11 14 -11 9 0 -5 -8 -2 -17 5
-15 11 -16 11 -6 0 9 -11 7 -17 -9 -30 -18 -15 -19 -18 -4 -30 22 -18 33 -6
15 16 -7 10 -9 15 -5 11 5 -4 16 -2 25 4 13 10 14 10 4 -2 -8 -8 -9 -19 -3
-30 6 -11 5 -17 -3 -18 -7 0 -25 -3 -42 -7 -28 -6 -28 -5 -11 8 13 10 15 16 7
21 -8 5 -8 13 0 29 9 20 9 20 -4 5 -8 -10 -17 -15 -21 -11 -4 4 -4 -1 0 -12 6
-14 4 -17 -9 -12 -8 3 -17 2 -19 -3 -4 -12 -61 -19 -74 -9 -7 6 -18 1 -29 -11
-15 -16 -16 -22 -5 -35 9 -11 16 -12 25 -5 6 5 15 7 19 3 4 -4 4 0 1 9 -4 9
-2 19 4 23 6 3 12 -3 12 -14 2 -30 3 -34 13 -51 5 -8 -2 -4 -17 8 -25 23 -26
23 -36 4 -6 -11 -7 -23 -3 -28 4 -5 -1 -2 -10 5 -9 7 -21 10 -27 7 -5 -3 -11
0 -14 8 -4 10 0 12 16 8 19 -5 20 -3 9 10 -21 27 -45 15 -48 -22 -2 -26 0 -31
7 -20 9 13 10 13 6 0 -2 -8 -13 -16 -25 -16 -17 -1 -19 2 -12 16 7 12 5 17 -6
17 -12 0 -15 -8 -12 -29 3 -18 -1 -33 -11 -41 -12 -10 -13 -9 -6 2 6 11 3 13
-13 9 -12 -4 -25 -2 -28 3 -3 5 2 9 10 9 9 0 16 7 16 15 0 12 -5 13 -27 4 -15
-6 -33 -15 -40 -21 -7 -6 -13 -7 -13 -3 0 4 -6 2 -14 -4 -9 -8 -16 -8 -20 -2
-8 12 4 19 26 16 12 -2 15 2 10 13 -4 10 -7 12 -10 4 -2 -7 -8 -9 -13 -6 -6 3
-16 0 -24 -6 -8 -7 -15 -9 -15 -5 0 4 -6 2 -13 -4 -8 -6 -16 -8 -19 -5 -3 2
-17 -9 -31 -26 -28 -33 -43 -39 -33 -13 6 16 6 16 -12 0 -10 -9 -22 -14 -26
-10 -4 4 -4 -1 0 -12 6 -14 4 -17 -8 -12 -12 4 -14 1 -10 -15 5 -19 6 -19 17
-5 11 15 14 15 29 -2 17 -19 17 -19 -8 -17 -32 4 -54 -18 -37 -37 8 -10 7 -14
-4 -14 -8 0 -12 4 -10 8 3 3 -2 12 -10 19 -8 7 -12 17 -8 24 3 6 2 8 -2 3 -5
-4 -16 0 -25 8 -14 13 -16 11 -17 -21 0 -22 4 -33 11 -31 6 2 10 12 10 21 -2
13 1 14 11 6 8 -6 13 -19 12 -29 -1 -15 -8 -18 -35 -15 -19 2 -43 -1 -53 -6
-12 -7 -19 -6 -21 2 -3 9 -6 9 -12 0 -4 -7 -2 -12 3 -12 8 0 7 -7 -1 -20 -10
-15 -10 -22 0 -32 9 -9 12 -9 12 1 0 7 5 9 12 5 7 -4 8 -3 4 5 -4 6 -12 8 -18
5 -6 -4 -5 3 2 15 9 18 14 20 26 10 13 -11 19 -5 15 15 -1 5 4 4 12 -2 7 -6
23 -10 35 -7 12 2 25 -1 28 -7 4 -6 2 -8 -4 -4 -6 3 -13 2 -17 -4 -4 -6 -12
-7 -24 0 -12 6 -22 5 -29 -2 -19 -19 -14 -32 6 -17 15 12 15 11 -1 -8 -11 -12
-25 -19 -31 -17 -9 4 -12 -8 -11 -40 1 -25 -2 -43 -5 -41 -4 3 -6 19 -5 37 1
18 0 37 -3 41 -6 11 -32 -13 -32 -30 0 -7 -8 -25 -17 -39 -16 -25 -17 -25 -31
-8 -9 12 -13 14 -9 4 2 -8 0 -23 -5 -33 -5 -10 -5 -24 1 -36 9 -15 7 -18 -7
-17 -20 1 -30 -50 -12 -68 6 -6 10 -6 8 -1 -2 6 0 11 5 13 7 2 7 -5 0 -26 -4
-10 -9 -10 -22 0 -13 10 -14 10 -4 -2 9 -9 9 -19 2 -34 -10 -20 -10 -20 5 -2
12 15 16 16 16 5 0 -8 -6 -21 -12 -29 -7 -8 -3 -6 10 4 12 11 22 15 22 11 0
-5 6 0 14 10 7 10 21 20 31 21 13 2 15 0 6 -9 -17 -17 -13 -26 10 -22 18 4 19
2 8 -11 -7 -9 -14 -23 -15 -31 -2 -8 -6 -18 -10 -21 -4 -4 -4 1 -1 10 3 10 2
20 -4 23 -5 4 -7 10 -5 14 3 4 -6 7 -19 7 -14 0 -27 -6 -29 -13 -4 -10 -1 -11
14 -3 12 7 21 7 25 0 6 -9 -1 -14 -17 -11 -4 0 -5 -6 -1 -15 4 -12 8 -12 13
-4 5 9 10 5 15 -11 l8 -23 14 28 c10 19 18 24 26 18 7 -5 20 -8 30 -6 11 1 16
0 13 -4 -3 -3 3 -16 15 -28 13 -14 16 -22 8 -20 -24 3 -40 17 -33 28 5 7 2 8
-6 3 -9 -6 -11 -4 -5 6 8 12 6 12 -8 0 -13 -10 -15 -17 -6 -27 6 -7 14 -12 18
-11 5 1 22 -9 40 -22 21 -16 30 -30 26 -42 -3 -9 -1 -20 4 -24 6 -3 8 0 5 8
-6 18 12 32 21 17 4 -6 2 -17 -4 -24 -6 -7 -7 -17 -3 -21 4 -5 0 -4 -8 1 -8 4
-21 9 -29 11 -7 1 -18 6 -24 12 -6 6 -14 6 -21 0 -31 -25 -121 -89 -126 -89
-12 1 -27 16 -27 30 -1 8 -5 47 -9 85 -5 39 -9 96 -9 128 0 31 -4 57 -8 57 -5
0 -5 5 -1 11 3 6 8 64 10 128 1 64 4 132 4 151 1 19 1 71 0 115 l-1 80 -28
-55 c-16 -30 -40 -67 -54 -82 -15 -16 -23 -28 -20 -28 3 0 -6 -9 -20 -20 -14
-11 -30 -20 -36 -20 -5 0 -14 -6 -18 -14 -12 -20 -47 -36 -61 -27 -9 5 -5 22
14 62 28 56 36 79 59 164 17 65 13 90 -33 221 -77 216 -161 343 -240 366 -22
6 -23 6 -8 -11 9 -10 13 -21 9 -26 -5 -4 1 -5 11 -1 16 5 17 4 6 -9 -11 -13
-10 -14 6 -9 10 4 16 4 12 -1 -4 -4 1 -20 12 -35 11 -16 20 -33 20 -39 0 -16
-46 -24 -88 -17 -20 4 -46 8 -58 10 -11 2 -36 10 -54 19 -18 10 -46 17 -61 17
-15 0 -31 5 -34 10 -3 6 -20 10 -36 10 -17 0 -32 6 -35 15 -4 8 -18 15 -34 15
-15 0 -33 6 -39 14 -7 8 -20 12 -30 9 -10 -3 -21 2 -24 10 -3 8 -25 18 -49 22
-24 4 -47 10 -53 14 -29 18 -76 25 -125 20 -82 -10 -250 -47 -287 -64 -17 -8
-36 -15 -41 -15 -6 0 -18 -7 -27 -17 -13 -13 -18 -14 -25 -3 -6 9 -9 8 -14 -7
-5 -16 -13 -19 -34 -15 -15 3 -31 10 -35 16 -6 8 -10 7 -14 -1 -2 -7 -15 -13
-27 -13 -12 0 -27 -5 -32 -10 -10 -10 -30 -14 -81 -19 -7 0 -13 -6 -13 -12 0
-6 -11 -20 -25 -31 -14 -11 -25 -26 -25 -34 0 -8 -7 -14 -15 -14 -7 0 -19 -8
-24 -17 -9 -15 -12 -15 -19 -5 -8 12 -13 12 -33 0 -13 -7 -26 -16 -29 -19 -3
-3 -23 -12 -45 -19 -22 -7 -44 -19 -48 -26 -4 -8 -15 -14 -23 -14 -26 0 -98
-42 -147 -86 -26 -23 -63 -48 -82 -54 -42 -14 -44 -27 -8 -56 23 -18 27 -28
26 -72 -1 -66 -6 -73 -44 -60 -23 8 -28 15 -24 29 4 13 2 19 -9 19 -28 0 -66
-20 -66 -34 0 -17 38 -56 54 -56 6 1 0 10 -13 20 -32 27 -2 27 32 0 14 -11 32
-20 40 -20 9 0 17 -5 19 -11 5 -15 66 16 190 97 54 35 105 64 115 64 11 0 25
-16 36 -39 16 -34 22 -39 64 -45 89 -12 110 -8 142 27 17 17 31 37 31 44 0 7
-25 13 -62 17 -35 3 -74 7 -88 9 -14 3 -36 5 -50 6 -21 1 -22 3 -10 15 34 32
245 166 262 166 10 0 47 9 81 21 l62 21 22 -26 22 -27 20 20 c11 11 33 23 48
27 47 11 86 35 125 75 27 28 47 39 67 39 16 0 34 7 41 15 10 11 28 15 66 13
30 -2 54 -7 54 -11 0 -5 5 -5 11 -2 16 11 103 -5 92 -16 -5 -5 -35 -18 -66
-29 -32 -11 -66 -29 -78 -41 -12 -12 -27 -18 -39 -14 -10 3 -22 0 -27 -7 -4
-7 -26 -22 -48 -33 -22 -11 -45 -27 -51 -35 -9 -10 -15 -11 -25 -3 -8 5 -21
10 -29 10 -8 1 -24 4 -34 9 -18 7 -18 5 3 -24 12 -18 18 -32 12 -32 -5 0 -13
5 -16 10 -10 17 -32 11 -56 -15 -13 -13 -28 -25 -32 -25 -5 0 -48 -40 -96 -89
-48 -48 -107 -99 -131 -111 -25 -12 -47 -26 -50 -30 -3 -3 -20 -15 -37 -25
-33 -20 -36 -26 -34 -80 2 -25 -5 -34 -39 -55 -45 -28 -44 -25 -29 -70 11 -30
9 -34 -17 -57 -16 -13 -41 -35 -56 -49 -15 -13 -35 -24 -44 -24 -11 0 -15 -6
-11 -19 3 -14 0 -17 -14 -14 -20 6 -69 58 -69 74 0 11 -70 12 -86 1 -16 -10
-23 -60 -10 -66 6 -2 2 -4 -9 -4 -11 0 -40 -2 -65 -6 -43 -5 -38 0 18 19 12 4
22 16 22 27 0 11 -5 16 -10 13 -6 -4 -17 -2 -24 4 -9 7 -27 8 -52 3 -30 -6
-39 -13 -45 -35 -4 -15 -3 -27 2 -27 5 0 9 -4 9 -9 0 -8 -101 -22 -109 -15 -2
2 13 11 33 19 45 19 42 37 -8 49 -53 14 -90 -1 -91 -37 0 -16 -7 -32 -16 -37
-18 -10 -326 -44 -401 -45 -25 0 -49 3 -52 6 -3 3 -2 19 3 36 8 26 6 32 -8 36
-11 2 -24 25 -34 55 -21 64 -21 62 6 62 16 0 18 -3 9 -9 -31 -19 26 -17 363
15 193 18 411 38 485 44 106 9 138 15 148 28 11 15 9 18 -20 24 -18 4 -67 8
-108 9 -41 1 -79 6 -85 10 -5 4 -61 10 -124 13 -62 3 -161 10 -220 16 -177 16
-213 18 -199 9 8 -5 -13 -9 -52 -9 -83 -1 -118 -5 -127 -13 -3 -4 -29 -7 -57
-7 -33 0 -46 -3 -37 -9 11 -7 11 -10 0 -15 -8 -3 33 -3 91 0 58 3 103 3 100 1
-9 -9 -60 -15 -130 -16 -42 -1 -60 -4 -51 -10 11 -7 10 -10 -5 -14 -30 -7 33
-6 99 2 31 4 57 3 57 -2 0 -4 10 -5 23 -2 17 5 19 4 7 -4 -8 -6 -32 -11 -52
-11 -21 0 -38 -4 -38 -10 0 -5 -5 -10 -11 -10 -5 0 -7 5 -4 10 4 6 -12 9 -42
9 l-48 -2 40 -6 c38 -6 38 -7 13 -14 -14 -4 -33 -9 -40 -12 -11 -4 -19 11 -31
55 -10 34 -15 65 -12 71 4 5 2 9 -4 9 -6 0 -15 19 -21 43 -6 23 -22 80 -35
126 -14 47 -23 86 -22 88 2 1 68 -2 147 -8 106 -9 157 -8 194 0 28 6 122 18
210 26 154 15 160 16 220 53 70 43 199 133 236 166 23 19 196 139 304 209 40
26 133 50 320 82 27 4 50 18 77 46 20 21 42 39 47 39 18 0 34 29 27 51 -7 20
-11 21 -79 15 -89 -7 -109 -10 -121 -18 -17 -10 -164 -30 -175 -23 -5 3 -21
-1 -34 -10 -16 -11 -33 -14 -47 -10 -19 6 -21 4 -16 -14 4 -17 0 -24 -21 -32
-15 -6 -40 -16 -57 -24 -38 -17 -56 -20 -76 -11 -37 16 -187 -78 -175 -110 3
-8 -1 -14 -10 -14 -8 0 -13 -4 -9 -10 6 -10 -54 -46 -70 -41 -40 12 -44 10
-33 -14 18 -40 3 -70 -44 -90 -67 -28 -97 -27 -104 1 -9 37 4 89 29 112 41 39
273 187 386 247 61 32 111 61 110 64 0 3 -31 26 -69 50 -96 62 -158 125 -192
198 -17 35 -33 65 -37 67 -4 3 -33 -4 -66 -15 -42 -14 -86 -19 -157 -19 -113
0 -121 -9 -46 -50 25 -14 63 -41 86 -61 22 -21 49 -40 60 -43 19 -7 35 -39 24
-50 -12 -13 -47 -5 -87 19 -23 13 -45 21 -49 18 -3 -3 -14 0 -23 8 -23 19 -73
41 -73 31 1 -4 7 -18 14 -32 12 -21 12 -30 0 -59 -8 -20 -14 -68 -14 -116 0
-105 -4 -117 -36 -105 -19 8 -26 6 -30 -5 -10 -24 -22 -18 -40 20 -26 55 -35
52 -28 -11 6 -46 4 -56 -7 -52 -7 2 -16 15 -19 28 -9 40 -38 36 -30 -5 1 -5
-1 -24 -5 -42 -6 -32 -29 -45 -37 -21 -7 19 -28 -1 -28 -26 0 -43 -53 -63 -80
-31 -7 8 -19 15 -26 15 -24 0 -15 -46 21 -110 32 -57 43 -90 30 -90 -10 0 -54
54 -55 66 0 7 -11 19 -25 28 -14 9 -25 25 -25 36 0 11 -7 20 -15 20 -8 0 -24
5 -35 12 -10 7 -23 9 -27 5 -4 -5 -1 -12 6 -16 22 -14 5 -81 -19 -81 -11 0
-20 7 -20 15 0 20 -18 50 -52 89 -16 17 -28 37 -28 44 0 14 -38 51 -52 52 -21
1 2 -195 42 -355 23 -92 23 -95 11 -95 -5 0 -11 10 -14 23 -2 12 -44 157 -91
322 -48 165 -107 368 -131 450 -24 83 -50 170 -58 195 -9 25 -30 97 -48 160
-17 63 -38 135 -45 160 -15 52 -59 207 -103 365 -17 61 -36 124 -42 140 -6 17
-15 46 -19 65 -4 19 -20 73 -34 120 -15 47 -38 126 -51 175 -14 50 -31 113
-39 140 -69 236 -91 314 -117 410 -42 158 -99 248 -176 281 -18 8 -34 13 -35
13 -2 -1 -11 -3 -20 -6z m1189 -2715 c-3 -8 -6 -5 -6 6 -1 11 2 17 5 13 3 -3
4 -12 1 -19z m5190 -55 c17 -15 17 -27 1 -16 -20 12 -32 10 -50 -12 -23 -26
-23 -10 0 20 18 25 29 27 49 8z m44 -20 c13 -16 12 -17 -3 -4 -10 7 -18 15
-18 17 0 8 8 3 21 -13z m-21 -80 c0 -4 -5 -2 -11 4 -9 9 -15 8 -26 -3 -16 -16
-33 -19 -33 -5 0 5 9 13 21 16 14 5 18 12 14 23 -4 12 0 10 14 -5 12 -12 21
-26 21 -30z m450 27 c-6 -3 -8 -14 -4 -23 3 -9 3 -17 0 -17 -9 0 -25 43 -20
52 3 4 12 4 20 1 11 -4 12 -8 4 -13z m-407 -33 c7 4 7 1 -1 -10 -8 -9 -11 -22
-7 -29 4 -7 -2 -2 -13 11 -11 14 -17 31 -14 39 4 12 7 11 14 -2 5 -9 15 -13
21 -9z m-44 -11 c6 -7 8 -22 4 -31 -5 -14 -3 -16 8 -10 8 4 11 4 6 0 -4 -5 3
-19 15 -32 12 -13 18 -23 15 -23 -4 0 -10 0 -14 0 -5 0 -8 6 -8 13 0 6 -10 11
-22 11 -21 -1 -25 19 -8 47 4 6 1 10 -6 8 -26 -3 -39 1 -39 12 0 6 7 8 16 5 8
-3 12 -2 9 4 -9 15 11 12 24 -4z m-1581 -76 c-8 -12 -16 -16 -22 -10 -6 6 -4
15 4 24 17 22 32 9 18 -14z m1587 -28 c-3 -3 -15 -7 -28 -9 -21 -4 -21 -3 -2
11 18 13 44 12 30 -2z m-2764 -62 c5 0 9 5 9 10 0 6 5 10 10 10 15 0 12 -40
-2 -41 -7 0 -4 -4 7 -9 19 -8 19 -9 -2 -9 -12 -1 -25 4 -28 9 -4 6 -15 8 -26
5 -11 -4 -19 -2 -19 4 0 6 4 11 9 11 5 0 12 10 16 23 6 19 8 19 12 5 2 -10 9
-18 14 -18z m2169 3 c12 10 12 9 2 -4 -6 -9 -11 -18 -9 -20 1 -2 0 -3 -2 -2
-2 2 -9 -5 -16 -14 -9 -13 -14 -13 -20 -3 -5 9 -4 11 3 6 7 -4 12 -2 12 3 0 6
-7 11 -16 11 -13 0 -14 3 -5 13 6 8 7 18 3 23 -4 5 2 1 14 -8 16 -14 23 -15
34 -5z m-1006 -14 c-3 -5 -10 -7 -15 -3 -5 3 -7 10 -3 15 3 5 10 7 15 3 5 -3
7 -10 3 -15z m1037 8 c-6 -8 -7 -18 -3 -22 4 -5 2 -5 -5 -1 -14 8 -6 36 9 36
7 0 6 -5 -1 -13z m1689 5 c0 -12 -23 -32 -37 -32 -11 0 -11 4 -1 20 13 20 38
28 38 12z m-3010 -32 c-7 -4 -9 -13 -6 -19 4 -6 12 -8 18 -5 6 4 5 -3 -2 -16
-6 -12 -14 -19 -17 -16 -4 3 -13 0 -21 -6 -17 -15 -42 -19 -42 -7 0 4 -6 6
-12 4 -17 -6 -45 12 -35 22 5 4 13 1 18 -7 8 -11 12 -12 15 -3 11 25 46 63 54
58 5 -3 11 -1 15 5 4 6 11 7 17 4 7 -4 6 -9 -2 -14z m100 -26 c0 -2 -8 0 -19
5 -18 10 -31 6 -31 -11 0 -5 5 -6 12 -2 7 4 8 3 4 -5 -6 -9 -11 -9 -22 0 -12
10 -12 13 3 24 16 12 53 4 53 -11z m230 10 c0 -8 -19 -13 -24 -6 -3 5 1 9 9 9
8 0 15 -2 15 -3z m150 0 c0 -8 -19 -13 -24 -6 -3 5 1 9 9 9 8 0 15 -2 15 -3z
m836 -6 c4 -7 4 -10 -1 -6 -12 11 -36 -12 -28 -26 4 -6 -1 -5 -10 3 -16 13
-14 36 3 26 5 -3 11 -1 15 5 8 13 12 13 21 -2z m54 8 c0 -2 -8 -10 -17 -17
-16 -13 -17 -12 -4 4 13 16 21 21 21 13z m-1180 -23 c7 -10 7 -10 -2 -3 -17
14 -28 12 -28 -5 0 -8 -4 -15 -10 -15 -5 0 -10 2 -10 4 0 2 -2 11 -5 18 -7 18
40 18 55 1z m648 -6 c7 -9 17 -15 21 -13 4 3 13 0 21 -5 12 -7 10 -8 -7 -6
-11 2 -28 8 -35 15 -8 6 -17 10 -20 7 -3 -3 -11 2 -19 11 -11 14 -10 15 7 12
10 -1 25 -11 32 -21z m-444 2 c3 -3 -5 -5 -19 -5 -13 0 -22 3 -19 7 4 8 30 6
38 -2z m-314 -12 c0 -2 -11 -14 -24 -26 -16 -15 -26 -19 -31 -12 -3 7 -3 11 2
10 20 -4 27 2 13 12 -13 9 -12 10 2 5 10 -3 20 -1 23 4 6 10 15 14 15 7z m244
-5 c3 -5 -1 -9 -9 -9 -8 0 -12 4 -9 9 3 4 7 8 9 8 2 0 6 -4 9 -8z m61 -39 c-2
-10 -4 -19 -4 -21 -1 -2 -6 0 -11 3 -8 5 -7 11 1 21 15 18 18 18 14 -3z m-406
-9 c-5 -7 -8 -16 -7 -22 2 -5 -1 -10 -7 -10 -5 0 -9 5 -7 10 1 6 -2 15 -7 22
-7 9 -4 12 14 12 18 0 21 -3 14 -12z m81 1 c-14 -17 0 -21 17 -4 8 8 13 7 18
-3 5 -7 4 -10 0 -5 -11 10 -46 -23 -38 -36 3 -6 1 -7 -5 -3 -6 4 -8 14 -5 23
5 12 3 14 -8 8 -8 -5 -5 1 5 13 21 25 36 31 16 7z m414 1 c-8 -20 -32 -28 -40
-13 -4 7 -4 9 1 5 4 -4 14 -1 22 7 18 19 24 19 17 1z m-380 -47 c-3 -5 -10 -7
-15 -3 -5 3 -7 10 -3 15 3 5 10 7 15 3 5 -3 7 -10 3 -15z m300 13 c3 -5 -1 -9
-9 -9 -8 0 -12 4 -9 9 3 4 7 8 9 8 2 0 6 -4 9 -8z m113 -14 c-3 -8 -6 -5 -6 6
-1 11 2 17 5 13 3 -3 4 -12 1 -19z m30 7 c0 -8 -4 -12 -9 -9 -5 3 -6 10 -3 15
9 13 12 11 12 -6z m727 -3 c3 -5 -1 -9 -9 -9 -8 0 -12 4 -9 9 3 4 7 8 9 8 2 0
6 -4 9 -8z m-1099 -12 c4 -6 -1 -7 -12 -3 -13 4 -10 -3 10 -24 23 -25 25 -31
13 -36 -10 -4 -13 -13 -9 -24 4 -12 0 -10 -14 6 -19 23 -71 42 -58 22 3 -5 1
-12 -4 -15 -5 -4 -8 2 -7 11 3 20 33 25 54 10 7 -6 12 -6 12 1 0 16 -24 29
-49 27 -22 -2 -23 -1 -6 11 10 7 21 11 26 9 4 -3 10 -1 14 5 8 13 22 13 30 0z
m47 -16 c-9 -12 -19 -20 -21 -18 -2 2 1 10 7 17 7 8 10 16 7 19 -3 2 1 5 9 5
12 0 11 -5 -2 -23z m425 1 c0 -8 -4 -12 -9 -9 -5 3 -6 10 -3 15 9 13 12 11 12
-6z m-107 0 c0 -2 -9 -9 -20 -15 -16 -9 -18 -8 -14 5 5 13 34 22 34 10z m740
-1 c0 -8 -19 -13 -24 -6 -3 5 1 9 9 9 8 0 15 -2 15 -3z m-956 -25 c3 -3 -5 -5
-19 -5 -13 0 -22 3 -19 7 4 8 30 6 38 -2z m-93 -22 c-10 -9 -11 -8 -5 6 3 10
9 15 12 12 3 -3 0 -11 -7 -18z m-3321 3 c16 -5 -4 -8 -60 -7 -74 0 -79 1 -35
7 67 9 66 9 95 0z m118 3 c-10 -2 -26 -2 -35 0 -10 3 -2 5 17 5 19 0 27 -2 18
-5z m3492 3 c0 -2 -7 -7 -16 -10 -8 -3 -12 -2 -9 4 6 10 25 14 25 6z m104 -4
c3 -5 -1 -9 -9 -9 -8 0 -12 4 -9 9 3 4 7 8 9 8 2 0 6 -4 9 -8z m-3574 -22 c-8
-5 -35 -9 -60 -8 l-45 1 50 7 c28 4 55 7 60 8 6 1 3 -3 -5 -8z m223 3 c-7 -2
-19 -2 -25 0 -7 3 -2 5 12 5 14 0 19 -2 13 -5z m1350 -9 c48 -8 43 -12 -29
-24 -75 -13 -190 -22 -183 -15 17 16 128 54 149 50 14 -2 42 -7 63 -11z m1458
-11 c12 -14 12 -16 0 -8 -11 6 -13 4 -8 -9 4 -9 3 -15 -2 -11 -6 3 -9 14 -8
25 2 24 1 24 18 3z m72 2 c-4 -14 -30 -14 -30 0 0 7 7 12 16 10 9 -1 15 -6 14
-10z m-2906 -1 c-3 -3 -12 -4 -19 -1 -8 3 -5 6 6 6 11 1 17 -2 13 -5z m190 0
c-3 -3 -12 -4 -19 -1 -8 3 -5 6 6 6 11 1 17 -2 13 -5z m2349 -23 c0 -17 -3
-28 -6 -26 -5 3 -6 38 -1 53 4 10 7 -3 7 -27z m238 20 c-8 -8 -34 -10 -38 -2
-3 4 6 7 19 7 14 0 22 -2 19 -5z m-3066 -7 c-3 -3 -30 -7 -59 -9 -42 -3 -47
-2 -24 4 35 10 91 13 83 5z m239 0 c-3 -3 -12 -4 -19 -1 -8 3 -5 6 6 6 11 1
17 -2 13 -5z m4538 -12 c-14 -13 -64 -30 -109 -37 -35 -6 -37 -8 -20 -19 34
-23 86 -28 329 -31 153 -3 274 -9 334 -19 52 -9 112 -13 133 -10 21 4 38 4 38
1 0 -11 -59 -37 -84 -37 -14 0 -27 -4 -30 -8 -10 -16 39 -31 114 -36 41 -3 78
-5 81 -6 7 0 5 -32 -4 -46 -18 -30 -262 -18 -262 13 0 23 -22 33 -86 39 -70 7
-124 -7 -116 -30 6 -15 -57 -26 -149 -26 -28 0 -66 -5 -83 -11 -27 -10 -31
-15 -26 -33 15 -43 15 -111 1 -129 -8 -10 -37 -27 -66 -37 -55 -20 -101 -18
-121 6 -6 8 -18 14 -26 14 -7 0 -16 6 -19 14 -3 8 -12 12 -21 9 -9 -4 -19 1
-25 10 -5 10 -14 17 -21 17 -7 0 -20 13 -31 28 -10 15 -32 38 -50 51 l-31 23
43 -6 c24 -4 82 -20 130 -37 l87 -30 55 18 c30 9 59 20 63 24 16 12 -12 46
-90 111 -97 81 -117 91 -157 84 -36 -7 -99 19 -93 37 2 7 25 20 51 30 l48 17
30 -25 c38 -32 50 -32 37 1 -5 15 -8 28 -7 29 36 24 176 58 153 37z m-4712 -9
c-7 -2 -19 -2 -25 0 -7 3 -2 5 12 5 14 0 19 -2 13 -5z m80 0 c-7 -2 -19 -2
-25 0 -7 3 -2 5 12 5 14 0 19 -2 13 -5z m202 -3 c-3 -5 -21 -9 -38 -9 l-32 2
35 7 c19 4 36 8 38 9 2 0 0 -3 -3 -9z m2715 -6 c0 -8 -19 -13 -24 -6 -3 5 1 9
9 9 8 0 15 -2 15 -3z m-3050 -14 c0 -4 28 -7 63 -5 53 3 56 3 22 -5 -87 -18
-379 -36 -335 -21 14 5 44 9 68 10 26 1 41 5 37 11 -4 6 11 10 39 10 26 0 46
-5 49 -12 4 -9 6 -8 6 2 1 15 51 25 51 10z m3670 0 c0 -5 -8 -10 -17 -10 -15
0 -16 2 -3 10 19 12 20 12 20 0z m-947 -29 c-3 -12 10 -15 21 -4 10 10 56 12
50 2 -2 -4 -13 -6 -23 -4 -11 2 -30 -9 -47 -26 -20 -21 -31 -26 -40 -18 -7 6
-10 18 -7 27 6 15 5 15 -10 3 -18 -14 -20 -12 -11 13 3 9 10 14 14 11 5 -3 11
-1 14 4 8 13 42 6 39 -8z m167 3 c0 -8 -19 -13 -24 -6 -3 5 1 9 9 9 8 0 15 -2
15 -3z m275 -11 c-19 -13 -31 -11 -21 5 3 5 13 9 22 9 15 0 15 -2 -1 -14z
m151 2 c-11 -8 -15 -19 -11 -27 6 -10 5 -10 -5 -1 -11 10 -11 15 0 28 7 8 18
15 24 15 6 0 3 -7 -8 -15z m-421 -34 c-9 -8 -36 -10 -30 -2 2 4 11 8 20 8 8 0
13 -3 10 -6z m233 -33 c-13 -23 -31 -42 -41 -44 -17 -2 -17 -1 -4 19 9 12 21
21 27 19 8 -2 10 3 7 12 -4 9 1 20 11 25 25 15 25 14 0 -31z m-479 -1 c8 -10
7 -14 -2 -14 -8 0 -14 6 -14 14 0 7 1 13 2 13 2 0 8 -6 14 -13z m266 -6 c3 -5
2 -12 -3 -15 -5 -3 -9 1 -9 9 0 17 3 19 12 6z m-2090 -61 c-3 -5 -10 -10 -16
-10 -5 0 -9 5 -9 10 0 6 7 10 16 10 8 0 12 -4 9 -10z m-598 -16 c-3 -3 -12 -4
-19 -1 -8 3 -5 6 6 6 11 1 17 -2 13 -5z m2360 -36 c-3 -8 -6 -5 -6 6 -1 11 2
17 5 13 3 -3 4 -12 1 -19z m289 10 c3 -4 -1 -5 -10 -4 -8 1 -18 5 -22 8 -3 4
1 5 10 4 8 -1 18 -5 22 -8z m-6 -44 c0 -8 -19 -13 -24 -6 -3 5 1 9 9 9 8 0 15
-2 15 -3z m-6 -75 c-3 -5 -10 -7 -15 -3 -5 3 -7 10 -3 15 3 5 10 7 15 3 5 -3
7 -10 3 -15z m-350 -58 c-5 -7 -24 11 -35 32 -11 20 -9 20 13 -3 13 -14 23
-27 22 -29z m286 -31 c0 -5 -10 -10 -22 -9 -22 0 -22 1 -3 9 11 5 21 9 23 9 1
1 2 -3 2 -9z m3443 -24 c9 -7 16 -20 14 -27 -2 -8 -2 -11 0 -6 3 4 22 7 44 7
21 0 39 5 39 10 0 18 22 10 27 -10 3 -11 9 -20 13 -20 4 0 10 -17 13 -37 5
-47 -15 -73 -56 -73 -30 0 -30 0 -11 -18 10 -9 29 -22 42 -27 21 -9 17 -12
-38 -24 -67 -15 -83 -8 -73 29 3 11 -3 22 -14 29 -21 11 -63 4 -63 -10 0 -5
-9 -9 -20 -9 -40 0 -39 102 3 165 23 37 50 44 80 21z m-3473 -6 c8 -5 11 -10
5 -10 -5 0 -17 5 -25 10 -8 5 -10 10 -5 10 6 0 17 -5 25 -10z m1967 -32 c-3
-8 -6 -5 -6 6 -1 11 2 17 5 13 3 -3 4 -12 1 -19z m53 -44 c0 -8 -4 -12 -10 -9
-5 3 -10 10 -10 16 0 5 5 9 10 9 6 0 10 -7 10 -16z m-73 -86 c-3 -8 -6 -5 -6
6 -1 11 2 17 5 13 3 -3 4 -12 1 -19z m-330 -29 c3 -10 14 -21 24 -24 10 -4 19
-15 19 -27 0 -11 8 -22 18 -25 14 -3 17 -12 14 -34 -4 -24 0 -31 17 -36 24 -6
29 -33 6 -33 -8 0 -23 9 -32 20 -10 12 -25 18 -37 15 -17 -4 -26 6 -52 57 -23
45 -30 72 -27 95 5 29 7 31 25 22 11 -6 23 -19 25 -30z m319 -55 c-4 -9 -9
-15 -11 -12 -3 3 -3 13 1 22 4 9 9 15 11 12 3 -3 3 -13 -1 -22z m-194 -169 c3
-14 1 -25 -3 -25 -5 0 -9 7 -9 15 0 8 -6 15 -12 15 -9 0 -8 4 2 10 8 5 16 10
16 10 1 0 4 -11 6 -25z m165 3 c-3 -8 -6 -5 -6 6 -1 11 2 17 5 13 3 -3 4 -12
1 -19z m-10 -90 c-3 -7 -5 -2 -5 12 0 14 2 19 5 13 2 -7 2 -19 0 -25z m-190
-24 c-3 -3 -12 -4 -19 -1 -8 3 -5 6 6 6 11 1 17 -2 13 -5z m183 -29 c0 -8 -4
-15 -10 -15 -5 0 -7 7 -4 15 4 8 8 15 10 15 2 0 4 -7 4 -15z"/>
<path d="M4484 2355 c-15 -23 -15 -28 -3 -35 19 -12 46 14 33 32 -5 8 -1 5 9
-5 9 -11 17 -15 17 -10 0 6 -9 18 -19 27 -19 17 -20 17 -37 -9z"/>
<path d="M4684 2193 c10 -12 15 -27 11 -35 -7 -10 -5 -11 6 0 11 10 9 16 -11
35 -24 22 -24 22 -6 0z"/>
<path d="M4189 2046 c-5 -5 -4 -48 2 -51 9 -6 26 17 26 36 0 12 -20 22 -28 15z
m15 -36 c-6 -6 -10 -3 -10 10 0 13 4 16 10 10 7 -7 7 -13 0 -20z"/>
<path d="M4597 1953 c-4 -3 -7 -11 -7 -17 0 -6 5 -5 12 2 6 6 9 14 7 17 -3 3
-9 2 -12 -2z"/>
<path d="M5720 5336 c0 -10 -12 -37 -26 -61 -14 -25 -23 -49 -19 -54 3 -6 -1
-21 -10 -34 -8 -13 -13 -31 -9 -40 3 -9 1 -24 -5 -34 -10 -17 -10 -17 -11 1 0
18 -1 18 -20 1 -10 -9 -19 -25 -18 -34 3 -35 -3 -51 -18 -51 -8 0 -13 -4 -9
-9 3 -5 1 -12 -5 -16 -5 -3 -10 -16 -10 -29 0 -12 -5 -27 -10 -32 -6 -6 -11
-34 -11 -62 -2 -50 -11 -66 -23 -39 -3 6 -3 2 -1 -10 3 -12 2 -24 -4 -27 -5
-3 -12 -29 -16 -56 -7 -50 -20 -61 -43 -38 -9 9 -12 8 -13 -8 -3 -64 -8 -92
-18 -117 -9 -22 -15 -27 -32 -22 -16 5 -20 3 -18 -12 2 -10 0 -24 -4 -30 -6
-9 0 -13 18 -13 16 0 24 -4 19 -11 -3 -6 -15 -8 -27 -5 -14 3 -29 -5 -51 -28
-27 -29 -36 -33 -70 -28 -30 3 -37 1 -34 -9 3 -8 17 -14 31 -14 15 1 27 -2 27
-6 0 -4 10 -9 23 -13 15 -4 18 -9 10 -14 -6 -4 -13 -32 -15 -62 -3 -55 -3 -55
-33 -52 l-30 4 23 -24 c12 -14 22 -33 22 -44 -1 -18 -1 -18 -14 -1 -19 25 -66
23 -66 -4 0 -11 -5 -17 -10 -14 -7 4 -7 12 0 24 5 10 6 21 3 25 -10 10 -61 7
-68 -4 -3 -5 -11 -10 -18 -10 -8 0 -8 3 1 12 18 18 15 40 -5 36 -10 -2 -17 -9
-16 -15 1 -6 -4 -17 -12 -23 -21 -18 -18 -32 5 -25 15 5 20 2 20 -10 0 -12 -5
-15 -16 -11 -9 3 -21 3 -27 -1 -6 -4 -30 -6 -52 -4 -29 2 -47 11 -66 32 -14
16 -29 29 -32 29 -9 0 -9 -35 1 -44 4 -4 7 -20 7 -36 0 -22 -4 -27 -19 -24
-10 2 -26 10 -36 19 -9 8 -22 15 -28 15 -15 0 -16 -36 -2 -45 18 -11 -1 -27
-26 -21 -17 5 -22 3 -18 -8 3 -7 -2 -16 -11 -20 -14 -5 -14 -8 1 -31 9 -14 23
-25 30 -25 17 0 19 -37 2 -43 -7 -2 -21 2 -30 11 -15 12 -22 13 -48 2 -17 -7
-27 -17 -23 -23 5 -8 8 -7 11 1 2 7 13 12 25 12 18 0 19 -2 7 -10 -13 -9 -13
-11 0 -20 13 -9 13 -11 0 -20 -13 -9 -13 -11 0 -20 8 -5 26 -8 40 -5 52 10
144 8 148 -3 5 -17 22 -4 22 17 0 14 -6 17 -24 14 -13 -3 -27 0 -30 6 -5 7 7
11 33 11 40 0 41 -1 41 -33 0 -41 7 -49 31 -37 24 13 32 -2 17 -35 -7 -15 -18
-25 -28 -23 -9 2 -17 -1 -18 -7 -1 -5 14 -9 32 -7 23 2 35 -2 39 -12 9 -22 22
-20 35 7 8 16 11 17 11 6 1 -25 25 -41 39 -27 8 8 14 4 22 -18 11 -28 12 -28
26 -10 14 20 14 20 15 0 2 -25 2 -26 -6 -46 -5 -13 2 -21 30 -32 21 -9 48 -16
61 -16 18 0 24 -5 24 -22 0 -13 7 -36 15 -51 13 -26 13 -30 -4 -48 -10 -11
-33 -22 -52 -24 -19 -2 -56 -9 -84 -15 -27 -5 -66 -13 -85 -15 -19 -3 -43 -7
-54 -10 -10 -2 -29 1 -43 6 -14 5 -30 6 -36 2 -17 -10 -87 -10 -87 1 0 5 -18
6 -41 2 -30 -5 -39 -3 -33 5 5 9 -5 11 -39 6 -30 -4 -61 -1 -88 8 -34 12 -44
13 -51 3 -5 -9 -8 -8 -8 5 0 10 -5 15 -10 12 -6 -4 -8 -11 -5 -16 4 -5 1 -9
-4 -9 -6 0 -11 6 -11 14 0 7 -7 19 -15 26 -12 10 -15 9 -15 -8 0 -26 -28 -51
-39 -34 -6 10 -16 9 -44 -3 -20 -8 -53 -15 -74 -15 -60 0 -243 -23 -243 -31 0
-7 -66 -21 -115 -24 -16 -1 -38 -5 -48 -10 -11 -4 -29 -3 -43 3 -20 10 -24 9
-24 -6 0 -13 -2 -14 -9 -3 -5 8 -11 9 -15 3 -3 -6 -23 -9 -44 -6 -31 3 -33 2
-12 -5 24 -9 24 -9 -7 -10 -34 -1 -64 -7 -228 -48 -110 -27 -189 -50 -220 -63
-11 -5 -54 -21 -95 -35 -41 -14 -79 -30 -84 -35 -6 -6 -18 -10 -28 -10 -10 0
-18 -4 -18 -8 0 -4 -16 -14 -35 -21 -19 -7 -35 -16 -35 -21 0 -13 123 -69 167
-76 26 -4 43 -2 47 5 4 6 14 11 23 11 8 0 28 14 44 31 17 19 35 29 44 25 8 -3
15 -1 15 4 0 6 34 10 78 10 88 0 194 17 203 32 7 11 30 16 129 27 36 4 67 4
68 -1 2 -4 9 -5 15 -1 7 4 46 8 87 9 41 1 75 3 75 4 0 2 42 4 93 5 50 1 92 0
92 -2 0 -2 -5 -14 -11 -25 -8 -16 -8 -22 2 -29 10 -6 9 -12 -6 -29 -18 -20
-20 -20 -26 -3 -6 13 -8 9 -8 -14 -1 -33 -15 -44 -24 -20 -3 7 -6 4 -6 -7 -1
-17 6 -18 107 -14 83 4 128 12 202 36 121 40 228 58 356 61 88 2 113 -1 177
-24 l76 -26 93 45 c91 43 286 96 356 96 38 0 45 10 32 46 -26 68 -51 314 -56
539 -4 217 2 295 26 350 13 30 18 84 7 88 -9 3 12 57 35 90 10 13 10 19 1 25
-15 9 -28 62 -16 62 6 0 15 11 21 25 10 22 15 24 60 18 49 -5 112 15 112 37 0
8 -66 15 -110 12 -3 0 -25 9 -50 21 -35 17 -45 27 -45 47 0 21 6 25 44 32 25
4 64 17 88 28 23 11 45 20 48 20 4 0 43 24 88 54 104 68 327 193 482 271 91
46 120 65 120 79 0 28 -45 37 -102 22 -82 -22 -254 -96 -352 -151 -24 -14 -49
-25 -55 -25 -6 0 -21 -11 -33 -24 -13 -13 -39 -31 -58 -40 -19 -9 -35 -21 -35
-25 0 -5 -17 -20 -37 -34 -21 -14 -55 -41 -75 -61 -21 -19 -38 -30 -38 -23 0
7 -6 4 -14 -5 -7 -10 -16 -15 -20 -11 -4 4 -11 1 -16 -7 -5 -8 -11 -12 -14 -9
-3 2 16 40 41 83 41 70 45 81 36 110 -10 34 -6 79 28 295 10 68 17 127 14 129
-3 3 -5 -2 -5 -12z m-305 -796 c3 -5 2 -10 -4 -10 -5 0 -13 5 -16 10 -3 6 -2
10 4 10 5 0 13 -4 16 -10z m35 -34 c0 -11 -19 -15 -25 -6 -3 5 1 10 9 10 9 0
16 -2 16 -4z m-286 -301 c3 -9 -1 -18 -10 -22 -19 -7 -28 2 -21 22 8 19 23 19
31 0z m156 -2 c0 -19 -19 -55 -20 -38 0 6 -3 20 -6 33 -5 16 -2 22 10 22 9 0
16 -8 16 -17z m-265 -53 c3 -5 1 -10 -4 -10 -6 0 -11 5 -11 10 0 6 2 10 4 10
3 0 8 -4 11 -10z m-95 -4 c0 -2 -7 -7 -16 -10 -8 -3 -12 -2 -9 4 6 10 25 14
25 6z m-73 -33 c3 -7 -4 -9 -16 -6 -12 3 -18 9 -15 15 7 11 26 6 31 -9z m210
5 c10 -17 -8 -23 -78 -28 -38 -3 -69 -4 -69 -3 0 1 -3 9 -7 19 -4 12 -3 15 5
10 7 -4 12 -2 12 3 0 13 128 12 137 -1z m-157 -33 c0 -5 -5 -3 -10 5 -5 8 -10
20 -10 25 0 6 5 3 10 -5 5 -8 10 -19 10 -25z m-93 -21 c-3 -3 -12 -4 -19 -1
-8 3 -5 6 6 6 11 1 17 -2 13 -5z m123 -34 c0 -5 -7 -7 -15 -4 -8 4 -12 10 -9
15 6 11 24 2 24 -11z m-90 -40 c0 -5 -5 -10 -11 -10 -5 0 -7 5 -4 10 3 6 8 10
11 10 2 0 4 -4 4 -10z m77 -6 c-3 -3 -12 -4 -19 -1 -8 3 -5 6 6 6 11 1 17 -2
13 -5z m83 -71 c-11 -17 -11 -17 -6 0 3 10 7 26 7 35 1 15 2 15 6 0 2 -10 -1
-25 -7 -35z m-160 27 c0 -12 -17 -12 -45 0 -17 7 -15 9 13 9 17 1 32 -3 32 -9z
m-523 -700 c17 -26 1 -34 -20 -9 -20 23 -21 29 -4 29 7 0 18 -9 24 -20z m178
-60 c-3 -5 -11 -10 -16 -10 -6 0 -7 5 -4 10 3 6 11 10 16 10 6 0 7 -4 4 -10z
m-45 -10 c0 -5 -8 -10 -17 -10 -15 0 -16 2 -3 10 19 12 20 12 20 0z m100 0
c-8 -5 -22 -9 -30 -9 -10 0 -8 3 5 9 27 12 43 12 25 0z m-63 -16 c-3 -3 -12
-4 -19 -1 -8 3 -5 6 6 6 11 1 17 -2 13 -5z"/>
<path d="M6540 5003 c-19 -18 -51 -41 -70 -50 -53 -26 -130 -74 -157 -99 -13
-12 -39 -30 -58 -39 -19 -9 -35 -20 -35 -25 0 -6 -5 -10 -10 -10 -6 0 -22 -12
-35 -26 -23 -25 -29 -38 -26 -56 2 -15 -17 -8 -23 8 -7 19 -26 9 -26 -16 0
-12 7 -18 23 -18 12 0 37 -3 55 -5 23 -3 36 0 45 12 12 17 94 61 114 61 15 0
113 41 141 59 93 58 265 107 294 83 36 -29 88 -9 88 33 0 33 -49 70 -117 90
-32 9 -68 21 -80 25 -14 6 -23 5 -25 -2 -3 -7 -9 -8 -19 -3 -27 17 -44 12 -79
-22z m-325 -321 c-10 -11 -35 -10 -42 0 -3 6 -1 8 5 4 6 -3 13 -2 17 4 4 6 11
8 16 4 6 -3 8 -9 4 -12z"/>
<path d="M6878 4844 c-6 -44 -4 -49 11 -39 13 7 14 45 2 64 -6 9 -10 1 -13
-25z"/>
<path d="M6915 4820 c-3 -5 -1 -18 4 -27 6 -10 11 -13 11 -6 0 6 3 18 6 27 7
17 -11 22 -21 6z"/>
<path d="M6228 4515 c-3 -3 -45 -10 -94 -16 -105 -11 -145 -23 -169 -49 -9
-10 -23 -16 -31 -13 -8 3 -14 -1 -14 -11 0 -9 -3 -15 -7 -14 -18 3 -45 -16
-54 -39 -5 -14 -14 -21 -20 -17 -8 4 -9 0 -4 -15 5 -16 3 -20 -9 -15 -10 4
-16 1 -16 -9 0 -9 -6 -22 -13 -29 -8 -7 -17 -25 -20 -40 -7 -25 -5 -27 24 -26
36 1 109 63 109 92 0 9 4 15 9 12 11 -7 66 21 92 46 10 10 31 20 46 24 87 19
168 45 175 56 4 7 8 10 8 5 0 -15 60 24 60 39 0 12 -6 15 -27 10 -15 -4 -29
-3 -33 4 -3 5 -9 8 -12 5z"/>
<path d="M5137 4425 c-7 -18 1 -45 14 -45 5 0 9 9 9 20 0 11 0 23 1 27 1 15
-19 13 -24 -2z"/>
<path d="M1686 4401 c-3 -4 -40 -14 -83 -21 l-77 -14 27 -19 c36 -27 94 -47
140 -47 42 0 44 8 25 71 -11 38 -21 48 -32 30z"/>
<path d="M5235 4390 c-4 -6 6 -10 22 -10 22 0 25 2 13 10 -19 12 -27 12 -35 0z"/>
<path d="M5200 4350 c0 -12 17 -12 45 0 17 7 15 9 -12 9 -18 1 -33 -3 -33 -9z"/>
<path d="M5070 4320 c0 -5 9 -10 20 -10 11 0 20 5 20 10 0 6 -9 10 -20 10 -11
0 -20 -4 -20 -10z"/>
<path d="M5247 4314 c-9 -10 2 -24 19 -24 8 0 14 7 14 15 0 15 -21 21 -33 9z"/>
<path d="M4946 4251 c-7 -11 22 -36 31 -27 3 3 1 6 -6 6 -8 0 -11 7 -7 15 6
16 -9 21 -18 6z"/>
<path d="M1735 4199 c-4 -5 5 -21 19 -34 28 -26 32 -21 16 19 -10 27 -24 33
-35 15z"/>
<path d="M4626 4139 c-2 -8 -7 -41 -10 -74 -3 -33 -9 -84 -12 -112 -5 -36 -3
-53 5 -53 6 0 11 12 11 28 0 15 5 70 10 122 8 87 7 123 -4 89z"/>
<path d="M4755 4130 c3 -5 8 -10 11 -10 2 0 4 5 4 10 0 6 -5 10 -11 10 -5 0
-7 -4 -4 -10z"/>
<path d="M1813 4112 c-8 -5 -11 -39 -9 -112 3 -91 1 -110 -18 -143 -11 -22
-29 -43 -38 -48 -25 -14 -24 -43 2 -36 10 3 21 0 23 -7 2 -6 17 -11 33 -11 22
0 30 -5 32 -22 2 -13 9 -23 16 -23 20 0 36 -43 24 -64 -7 -13 -17 -16 -34 -12
-17 5 -33 0 -51 -14 -14 -11 -33 -20 -42 -20 -18 0 -79 -21 -99 -34 -8 -5 -18
-4 -25 3 -6 6 -18 11 -27 11 -9 0 -44 11 -79 25 -48 20 -181 55 -207 55 -3 0
21 -21 52 -46 69 -57 204 -122 282 -136 49 -9 69 -8 142 12 97 25 105 26 141
17 26 -7 27 -6 18 26 -10 39 -34 117 -41 137 -3 8 -18 72 -33 143 -15 70 -29
137 -32 150 -6 21 -5 21 23 -4 36 -33 72 -52 83 -44 5 3 12 -1 14 -7 11 -27
27 18 23 64 -2 34 -13 58 -34 86 -40 50 -62 69 -62 53 0 -11 -11 -10 -55 5 -5
2 -15 0 -22 -4z m57 -76 c0 -8 7 -16 15 -20 8 -3 15 -16 15 -28 0 -22 0 -22
-19 -3 -23 24 -37 65 -22 65 6 0 11 -6 11 -14z"/>
<path d="M2502 4060 c12 -16 25 -30 29 -30 4 0 9 -9 12 -20 3 -11 13 -23 24
-27 10 -4 26 -17 36 -30 10 -13 22 -23 26 -23 4 0 28 -18 52 -41 81 -76 109
-94 120 -78 13 20 11 27 -9 38 -10 5 -81 62 -158 125 -76 64 -143 116 -147
116 -4 0 2 -13 15 -30z"/>
<path d="M6720 4034 c0 -10 -7 -13 -25 -8 -26 6 -37 -12 -12 -21 37 -14 60
-10 62 12 1 12 -4 24 -12 27 -7 3 -13 -1 -13 -10z"/>
<path d="M4581 4008 c0 -9 -4 -25 -7 -35 -5 -17 -5 -17 6 0 6 10 9 25 7 35 -4
15 -5 15 -6 0z"/>
<path d="M4210 4000 c-46 -8 -74 -24 -99 -56 -29 -37 -28 -104 2 -141 13 -15
31 -40 40 -55 18 -30 83 -53 124 -45 18 3 23 1 19 -9 -3 -8 1 -14 9 -14 8 0
15 9 15 21 0 11 4 17 10 14 6 -4 17 -1 25 5 11 9 11 17 3 35 -8 18 -8 28 2 40
9 11 9 15 1 15 -6 0 -14 -6 -17 -13 -3 -8 -11 -14 -19 -14 -13 0 -13 3 0 17 8
9 15 23 15 31 0 12 2 11 10 -1 12 -19 4 61 -11 107 -6 18 -8 37 -5 42 7 11
-20 22 -38 15 -8 -3 -23 -1 -33 3 -10 5 -34 7 -53 3z m40 -121 c0 -5 -4 -9
-10 -9 -5 0 -10 7 -10 16 0 8 5 12 10 9 6 -3 10 -10 10 -16z m-50 -11 c0 -18
-2 -20 -9 -8 -6 8 -7 18 -5 22 9 14 14 9 14 -14z"/>
<path d="M1468 3983 c7 -3 16 -2 19 1 4 3 -2 6 -13 5 -11 0 -14 -3 -6 -6z"/>
<path d="M4366 3965 c4 -8 8 -15 10 -15 2 0 4 7 4 15 0 8 -4 15 -10 15 -5 0
-7 -7 -4 -15z"/>
<path d="M4351 3936 c7 -15 15 -23 17 -16 3 7 -3 19 -13 28 -15 16 -16 15 -4
-12z"/>
<path d="M4705 3910 c-3 -5 -1 -10 4 -10 6 0 11 5 11 10 0 6 -2 10 -4 10 -3 0
-8 -4 -11 -10z"/>
<path d="M4595 3860 c-4 -6 -9 -36 -11 -68 -7 -72 11 -50 19 26 6 52 4 61 -8
42z"/>
<path d="M7248 3863 c6 -2 18 -2 25 0 6 3 1 5 -13 5 -14 0 -19 -2 -12 -5z"/>
<path d="M7421 3807 c-16 -20 -4 -27 45 -27 45 0 67 16 43 31 -21 13 -75 11
-88 -4z"/>
<path d="M1215 3790 c3 -5 0 -10 -7 -11 -7 0 14 -7 47 -15 74 -18 101 -11 66
17 -25 20 -118 28 -106 9z"/>
<path d="M4371 3764 c0 -11 3 -14 6 -6 3 7 2 16 -1 19 -3 4 -6 -2 -5 -13z"/>
<path d="M2966 3721 c-9 -16 -21 -35 -29 -43 -7 -7 -37 -49 -67 -93 -30 -44
-57 -82 -60 -85 -8 -8 -80 -118 -117 -178 -34 -57 -46 -102 -26 -109 6 -2 14
10 18 27 4 16 10 28 15 25 4 -3 6 3 3 13 -2 10 3 24 11 31 9 8 16 21 16 30 1
25 38 64 55 57 8 -3 15 -1 15 4 0 6 -7 10 -15 10 -8 0 -15 5 -15 10 0 6 6 10
14 10 8 0 20 14 28 30 7 17 21 33 30 36 10 3 18 13 18 23 0 21 32 61 49 61 6
0 11 10 11 23 0 16 3 18 9 8 7 -10 11 -5 16 18 3 17 11 31 16 31 5 0 9 8 9 18
0 10 7 27 15 39 9 13 11 24 6 28 -6 3 -17 -8 -25 -24z"/>
<path d="M6279 3626 c-4 -4 -24 -7 -149 -22 -157 -18 -294 -89 -282 -146 4
-21 -58 -80 -90 -85 -25 -4 -61 -33 -40 -33 33 0 193 75 239 112 29 23 51 44
49 45 -5 5 -70 -30 -78 -42 -4 -5 -8 -7 -8 -3 0 4 -16 -1 -35 -12 -19 -11 -35
-15 -35 -10 0 6 5 10 11 10 6 0 8 9 4 20 -4 11 -2 20 4 20 6 0 11 -6 11 -12 1
-7 9 -3 19 9 10 12 22 19 25 15 4 -3 10 -1 14 5 9 14 50 19 80 9 13 -4 28 -4
35 1 24 18 92 20 367 15 115 -3 115 -3 88 22 -13 12 -19 18 -14 14 5 -4 16 -2
25 5 12 10 13 9 6 -2 -5 -9 -4 -12 3 -7 21 13 90 -14 149 -57 32 -24 90 -67
130 -96 78 -57 106 -91 106 -128 0 -13 5 -23 13 -23 8 0 14 7 14 15 0 8 5 15
10 15 15 0 69 -62 76 -87 3 -13 10 -23 15 -23 5 0 9 -11 9 -25 0 -14 -6 -25
-13 -25 -8 0 -14 -7 -14 -15 0 -8 4 -12 8 -10 4 3 10 -2 13 -11 3 -8 2 -12 -4
-9 -6 3 -10 2 -10 -4 0 -5 4 -12 9 -15 5 -3 7 -14 4 -24 -6 -26 47 -128 58
-111 21 33 0 202 -28 225 -8 7 -13 16 -12 20 4 21 -15 74 -26 74 -7 0 -15 12
-18 28 -3 15 -25 47 -49 72 -45 47 -168 146 -168 135 0 -3 -16 6 -35 20 -19
15 -39 24 -46 19 -8 -4 -9 -3 -5 4 7 12 -22 28 -67 36 -12 2 -47 11 -77 20
-75 21 -104 26 -183 33 -37 3 -70 10 -73 14 -5 9 -28 12 -35 5z m-176 -93 c-7
-2 -19 -2 -25 0 -7 3 -2 5 12 5 14 0 19 -2 13 -5z m-63 -13 c0 -5 -4 -10 -10
-10 -5 0 -10 5 -10 10 0 6 5 10 10 10 6 0 10 -4 10 -10z"/>
<path d="M3978 3423 c7 -3 16 -2 19 1 4 3 -2 6 -13 5 -11 0 -14 -3 -6 -6z"/>
<path d="M7010 3408 c1 -7 7 -24 14 -37 17 -30 30 -12 16 23 -10 27 -30 36
-30 14z"/>
<path d="M6445 3370 c-3 -5 -2 -10 4 -10 5 0 13 5 16 10 3 6 2 10 -4 10 -5 0
-13 -4 -16 -10z"/>
<path d="M6490 3346 c14 -8 28 -12 31 -10 4 2 12 -3 19 -11 7 -8 19 -15 26
-15 8 0 14 -4 14 -10 0 -5 5 -10 10 -10 6 0 10 6 10 14 0 13 -49 38 -77 40 -6
1 -15 5 -19 9 -4 4 -14 7 -23 7 -10 -1 -7 -5 9 -14z"/>
<path d="M6612 3300 c0 -14 2 -19 5 -12 2 6 2 18 0 25 -3 6 -5 1 -5 -13z"/>
<path d="M6632 3290 c0 -14 2 -19 5 -12 2 6 2 18 0 25 -3 6 -5 1 -5 -13z"/>
<path d="M4153 3083 c9 -2 23 -2 30 0 6 3 -1 5 -18 5 -16 0 -22 -2 -12 -5z"/>
<path d="M3086 3065 c4 -10 0 -15 -14 -15 -11 0 -22 -8 -25 -19 -3 -13 0 -18
8 -15 7 3 15 -1 18 -9 9 -25 177 -51 177 -29 0 20 -62 57 -87 53 -7 -1 -13 2
-13 8 0 5 -14 17 -32 25 -38 20 -39 20 -32 1z"/>
<path d="M3324 2942 c4 -7 20 -12 35 -12 15 0 46 -9 69 -20 47 -23 59 -25 40
-7 -27 24 -59 38 -105 44 -34 4 -44 3 -39 -5z"/>
<path d="M6674 2939 c-3 -5 3 -6 13 -2 16 6 16 5 4 -10 -21 -27 -8 -29 15 -3
l20 24 -23 0 c-13 0 -26 -4 -29 -9z"/>
<path d="M6721 2919 c-12 -11 -21 -25 -21 -32 0 -8 4 -7 10 3 5 8 12 11 16 7
4 -3 1 -14 -7 -24 -8 -9 -9 -14 -3 -10 16 9 22 -11 18 -58 -1 -23 1 -34 5 -26
10 15 7 96 -4 126 -5 14 -4 16 2 7 8 -10 12 -10 22 1 19 24 -13 29 -38 6z"/>
<path d="M6760 2900 c-8 -5 -11 -12 -7 -17 5 -4 13 -1 18 7 9 12 10 12 5 -3
-3 -10 -2 -16 2 -13 8 5 10 -6 14 -64 1 -23 -2 -34 -10 -32 -9 1 -10 -6 -6
-25 8 -34 14 -42 14 -19 0 9 12 21 27 27 15 6 23 13 18 17 -6 4 -10 26 -10 49
0 37 -2 42 -19 37 -11 -4 -16 -2 -13 3 11 17 -16 44 -33 33z"/>
<path d="M6754 2820 c0 -36 3 -47 11 -40 7 6 14 8 16 5 8 -7 4 38 -5 63 -12
37 -22 25 -22 -28z"/>
<path d="M6270 2790 c6 -11 13 -20 16 -20 2 0 0 9 -6 20 -6 11 -13 20 -16 20
-2 0 0 -9 6 -20z"/>
<path d="M6315 2791 c6 -18 4 -22 -6 -16 -8 5 -10 4 -6 0 4 -5 14 -10 22 -11
12 -2 13 2 4 19 -17 32 -22 35 -14 8z"/>
<path d="M6315 2739 c-4 -6 -5 -12 -2 -15 2 -3 7 2 10 11 7 17 1 20 -8 4z"/>
<path d="M5546 2644 c-4 -10 -4 -15 0 -11 4 4 13 2 20 -4 8 -7 14 -6 20 2 4 7
3 9 -4 5 -6 -3 -15 1 -20 10 -8 15 -10 14 -16 -2z"/>
<path d="M6772 2618 c6 -18 28 -21 28 -4 0 9 -7 16 -16 16 -9 0 -14 -5 -12
-12z"/>
<path d="M5580 2601 c0 -6 4 -13 10 -16 6 -3 7 1 4 9 -7 18 -14 21 -14 7z"/>
<path d="M5549 2583 c-13 -16 -12 -17 4 -4 9 7 17 15 17 17 0 8 -8 3 -21 -13z"/>
<path d="M5580 2558 c7 -8 4 -18 -8 -32 -17 -21 -17 -21 5 -2 23 19 58 15 51
-6 -6 -16 -28 -23 -28 -8 0 6 5 8 10 5 6 -3 10 -1 10 4 0 19 -17 12 -33 -13
-15 -22 -15 -24 1 -21 24 4 35 -5 24 -18 -6 -8 -3 -19 11 -32 16 -16 19 -16
14 -3 -6 17 15 20 30 3 4 -4 2 -5 -6 0 -9 5 -12 3 -9 -5 5 -15 36 -22 58 -13
8 3 17 7 20 8 25 9 39 19 44 32 6 14 3 13 -19 -1 -14 -9 -25 -14 -25 -10 0 4
-8 0 -17 -7 -10 -7 -15 -10 -11 -5 4 5 3 16 -2 26 -6 12 -5 17 5 17 7 0 11 -7
8 -16 -4 -13 -3 -13 5 -2 6 9 11 10 13 2 2 -6 10 -2 17 10 8 12 9 18 3 15 -5
-4 -12 -2 -16 4 -4 6 -11 8 -16 5 -14 -9 -11 19 4 34 6 8 -1 6 -16 -4 -19 -12
-24 -21 -17 -25 8 -5 9 -10 2 -14 -5 -3 -13 2 -17 12 -6 16 -7 16 -16 -1 -10
-17 -29 -15 -29 4 0 6 4 8 9 4 5 -3 12 -1 16 5 4 6 10 8 14 6 4 -3 12 3 18 13
9 14 8 18 -3 18 -7 0 -11 -4 -8 -9 3 -4 -2 -8 -10 -8 -9 0 -13 6 -10 14 3 8 1
17 -5 21 -6 3 -9 0 -5 -8 3 -8 -2 -14 -11 -14 -9 0 -14 6 -11 12 2 6 -2 12
-10 12 -7 0 -11 -4 -8 -9 7 -11 -9 -10 -24 2 -9 7 -9 7 -2 -2z m68 -43 c-3 -3
-9 2 -12 12 -6 14 -5 15 5 6 7 -7 10 -15 7 -18z m7 -35 c5 8 11 8 21 -1 21
-18 17 -29 -11 -27 -14 1 -25 7 -25 13 0 5 -5 3 -10 -5 -7 -12 -9 -10 -7 7 1
16 5 19 13 12 8 -7 14 -6 19 1z"/>
<path d="M5136 2527 c3 -10 9 -15 12 -12 3 3 0 11 -7 18 -10 9 -11 8 -5 -6z"/>
<path d="M5136 2487 c3 -10 9 -15 12 -12 3 3 0 11 -7 18 -10 9 -11 8 -5 -6z"/>
<path d="M4610 2446 c0 -2 7 -9 15 -16 9 -7 15 -8 15 -2 0 5 -7 12 -15 16 -8
3 -15 4 -15 2z"/>
<path d="M6110 2424 c0 -16 -2 -17 -10 -4 -5 8 -10 11 -10 5 0 -5 4 -16 9 -24
7 -11 10 -9 16 8 4 13 4 25 1 28 -3 4 -6 -2 -6 -13z"/>
<path d="M5130 2421 c0 -6 4 -13 10 -16 6 -3 7 1 4 9 -7 18 -14 21 -14 7z"/>
<path d="M5617 2403 c4 -11 8 -11 21 -1 13 11 14 9 8 -12 -5 -17 -4 -21 2 -11
8 11 11 10 15 -5 4 -16 5 -17 6 -1 1 10 9 17 20 17 11 0 23 5 26 10 4 6 11 7
17 4 7 -4 8 -2 4 5 -6 9 -11 9 -22 0 -7 -6 -21 -9 -29 -5 -8 3 -15 0 -15 -7 0
-8 -3 -7 -9 2 -12 19 -51 22 -44 4z"/>
<path d="M5024 2392 c11 -12 21 -20 24 -17 3 3 12 -1 20 -7 21 -18 46 -20 32
-3 -8 10 -7 14 2 18 7 2 -3 3 -22 2 -20 -1 -44 5 -55 14 -20 16 -20 16 -1 -7z"/>
<path d="M5259 2373 c-13 -16 -12 -17 4 -4 16 13 21 21 13 21 -2 0 -10 -8 -17
-17z"/>
<path d="M6048 2383 c7 -3 16 -2 19 1 4 3 -2 6 -13 5 -11 0 -14 -3 -6 -6z"/>
<path d="M5285 2330 c-10 -11 -15 -20 -11 -20 4 0 1 -10 -5 -22 -9 -18 -9 -20
0 -12 7 6 13 18 14 25 6 34 18 41 40 22 l22 -18 -19 23 c-23 27 -19 26 -41 2z"/>
<path d="M5765 2341 c-3 -6 -14 -8 -25 -6 -11 2 -22 0 -24 -4 -8 -13 43 -6 56
7 7 7 9 12 6 12 -4 0 -9 -4 -13 -9z"/>
<path d="M5040 2321 c0 -4 9 -16 19 -25 13 -12 21 -14 26 -6 4 7 18 9 31 6 14
-4 24 -2 24 4 0 6 6 8 13 4 7 -4 8 -3 4 2 -5 5 -25 9 -45 10 -20 1 -37 3 -37
4 0 1 -8 3 -17 5 -10 2 -18 0 -18 -4z m38 -26 c-3 -3 -9 2 -12 12 -6 14 -5 15
5 6 7 -7 10 -15 7 -18z"/>
<path d="M5194 2309 c-4 -7 -3 -10 3 -6 6 4 17 -1 24 -10 12 -15 12 -16 -3
-10 -12 4 -15 2 -11 -9 5 -13 8 -12 27 3 11 10 23 20 26 22 3 2 -2 1 -10 -1
-8 -3 -22 1 -32 9 -12 11 -18 11 -24 2z"/>
<path d="M4173 2297 c0 -8 6 -14 14 -14 9 0 10 4 2 14 -6 7 -12 13 -14 13 -1
0 -2 -6 -2 -13z"/>
<path d="M4373 2291 c0 -11 5 -18 9 -15 4 3 5 11 1 19 -7 21 -12 19 -10 -4z"/>
<path d="M5789 2298 c0 -2 -2 -11 -4 -21 -3 -15 -1 -16 11 -6 7 6 11 15 8 20
-5 9 -13 12 -15 7z"/>
<path d="M4181 2256 c-1 -15 -4 -16 -16 -6 -10 9 -15 9 -15 1 0 -6 6 -11 13
-11 6 -1 1 -10 -12 -20 -13 -11 -20 -20 -16 -20 4 0 2 -6 -4 -14 -9 -11 -9
-17 2 -27 7 -7 12 -24 11 -38 -1 -18 0 -19 3 -5 5 26 46 47 61 32 6 -6 12 -6
17 3 5 7 4 10 -2 6 -6 -4 -15 -1 -20 6 -13 17 -15 67 -3 67 6 0 8 -11 6 -25
-3 -13 -1 -27 4 -30 10 -6 22 24 14 37 -3 5 2 18 11 28 11 12 13 20 5 25 -6 3
-9 1 -8 -5 5 -20 -40 -22 -45 -2 -4 15 -5 15 -6 -2z m-1 -35 c-12 -23 -13 -34
-2 -27 4 2 8 -4 8 -14 0 -10 -3 -17 -7 -14 -4 2 -9 -1 -11 -8 -5 -13 -28 -2
-28 13 0 6 5 7 12 3 8 -5 9 -2 4 11 -4 11 0 25 10 36 22 24 27 24 14 0z"/>
<path d="M4270 2249 c0 -5 5 -7 10 -4 6 3 10 8 10 11 0 2 -4 4 -10 4 -5 0 -10
-5 -10 -11z"/>
<path d="M5710 2221 c0 -6 3 -11 8 -12 4 0 15 -2 25 -4 11 -2 16 0 12 3 -4 4
-10 7 -13 7 -4 0 -13 4 -19 8 -8 5 -13 4 -13 -2z"/>
<path d="M1321 2206 c2 -2 18 -6 34 -10 22 -5 26 -4 15 4 -14 9 -59 15 -49 6z"/>
<path d="M1143 2184 c18 -10 39 -13 59 -9 43 10 17 25 -42 24 l-45 0 28 -15z"/>
<path d="M1503 1928 c-79 -10 -103 -23 -87 -49 8 -13 38 -11 52 3 6 6 40 13
74 15 105 6 118 8 115 18 -1 5 -9 10 -17 11 -8 1 -24 4 -35 7 -11 3 -57 0
-102 -5z"/>
<path d="M7962 1911 c-11 -7 -10 -10 3 -15 26 -10 35 -7 35 9 0 17 -18 19 -38
6z"/>
<path d="M4185 1869 c-4 -6 -5 -12 -2 -15 2 -3 7 2 10 11 7 17 1 20 -8 4z"/>
<path d="M4270 1715 c0 -8 5 -15 10 -15 6 0 10 7 10 15 0 8 -4 15 -10 15 -5 0
-10 -7 -10 -15z"/>
<path d="M7670 960 c20 -13 60 -13 60 0 0 6 -17 10 -37 10 -28 0 -34 -3 -23
-10z"/>
<path d="M7910 950 c-11 -7 -4 -10 25 -10 29 0 36 3 25 10 -8 5 -19 10 -25 10
-5 0 -17 -5 -25 -10z"/>
</g>
</svg>
